# Created by FreeCAD <https://www.freecad.org>
v 0.000000 0.000000 150.015274
v 11.240000 15.000000 135.015274
v 0.000000 15.000000 150.015274
v 11.240000 0.000000 135.015274
v -11.240000 0.000000 135.015274
v -11.240000 15.000000 135.015274
vn 0.800256 -0.000000 0.599658
vn 0.800256 0.000000 0.599658
vn -0.800256 0.000000 0.599658
vn -0.800256 0.000000 0.599658
vn 0.000000 -1.000000 0.000000
vn 0.000000 1.000000 0.000000
vn 0.000000 0.000000 -1.000000
vn -0.000000 -0.000000 -1.000000
f 1//1 2//1 3//1
f 1//2 4//2 2//2
f 5//3 1//3 6//3
f 6//4 1//4 3//4
f 4//5 1//5 5//5
f 3//6 2//6 6//6
f 4//7 5//7 6//7
f 2//8 4//8 6//8
