# Created by FreeCAD <https://www.freecad.org>
v -63.500000 -6.250000 -10.000000
v 63.500000 -6.250000 -10.000000
v -63.500000 -6.250000 0.000000
v 63.500000 -6.250000 0.000000
v -63.500000 106.250000 0.000000
v -63.500000 106.250000 -10.000000
v 63.500000 106.250000 -10.000000
v 63.500000 106.250000 0.000000
v -60.500000 0.000000 0.000000
v -60.500000 -3.250000 0.000000
v -60.500000 3.000000 0.000000
v -57.250008 3.000000 0.000000
v -54.250008 0.000000 0.000000
v -54.250008 6.000000 0.000000
v -57.250008 6.000000 0.000000
v -57.250008 97.000000 0.000000
v -57.250008 94.000000 0.000000
v -54.250008 94.000000 0.000000
v -60.500000 100.000000 0.000000
v -60.500000 97.000000 0.000000
v -60.500000 103.250000 0.000000
v -54.250008 100.000000 0.000000
v 54.250008 6.000000 0.000000
v 54.250008 0.000000 0.000000
v 57.250008 3.000000 0.000000
v 60.500000 0.000000 0.000000
v 60.500000 -3.250000 0.000000
v 57.250008 6.000000 0.000000
v 60.500000 3.000000 0.000000
v 57.250008 97.000000 0.000000
v 54.250008 100.000000 0.000000
v 54.250008 94.000000 0.000000
v 57.250008 94.000000 0.000000
v 60.500000 100.000000 0.000000
v 60.500000 97.000000 0.000000
v 60.500000 103.250000 0.000000
v -60.500000 0.000000 -5.000000
v -54.250008 0.000000 -5.000000
v -60.500000 -3.250000 -5.000000
v 60.500000 -3.250000 -5.000000
v 60.500000 0.000000 -5.000000
v 54.250008 0.000000 -5.000000
v 54.250008 6.000000 -5.000000
v 57.250008 6.000000 -5.000000
v 57.250008 3.000000 -5.000000
v 60.500000 3.000000 -5.000000
v 60.500000 97.000000 -5.000000
v 57.250008 97.000000 -5.000000
v 57.250008 94.000000 -5.000000
v 54.250008 94.000000 -5.000000
v 54.250008 100.000000 -5.000000
v 60.500000 100.000000 -5.000000
v 60.500000 103.250000 -5.000000
v -60.500000 103.250000 -5.000000
v -60.500000 100.000000 -5.000000
v -54.250008 100.000000 -5.000000
v -54.250008 94.000000 -5.000000
v -57.250008 94.000000 -5.000000
v -57.250008 97.000000 -5.000000
v -60.500000 97.000000 -5.000000
v -60.500000 3.000000 -5.000000
v -57.250008 3.000000 -5.000000
v -57.250008 6.000000 -5.000000
v -54.250008 6.000000 -5.000000
vn 0.000000 -1.000000 0.000000
vn 0.000000 -1.000000 0.000000
vn -1.000000 0.000000 0.000000
vn -1.000000 0.000000 0.000000
vn 1.000000 0.000000 0.000000
vn 1.000000 -0.000000 0.000000
vn 0.000000 0.000000 -1.000000
vn 0.000000 0.000000 -1.000000
vn 0.000000 0.000000 1.000000
vn 0.000000 0.000000 1.000000
vn 0.000000 0.000000 1.000000
vn 0.000000 0.000000 1.000000
vn 0.000000 0.000000 1.000000
vn 0.000000 0.000000 1.000000
vn 0.000000 0.000000 1.000000
vn 0.000000 0.000000 1.000000
vn 0.000000 0.000000 1.000000
vn 0.000000 0.000000 1.000000
vn 0.000000 0.000000 1.000000
vn 0.000000 0.000000 1.000000
vn 0.000000 0.000000 1.000000
vn 0.000000 0.000000 1.000000
vn 0.000000 0.000000 1.000000
vn 0.000000 0.000000 1.000000
vn 0.000000 0.000000 1.000000
vn 0.000000 0.000000 1.000000
vn 0.000000 0.000000 1.000000
vn 0.000000 0.000000 1.000000
vn 0.000000 0.000000 1.000000
vn 0.000000 0.000000 1.000000
vn 0.000000 0.000000 1.000000
vn 0.000000 0.000000 1.000000
vn 0.000000 0.000000 1.000000
vn 0.000000 0.000000 1.000000
vn 0.000000 0.000000 1.000000
vn 0.000000 0.000000 1.000000
vn 0.000000 0.000000 1.000000
vn 0.000000 -0.000000 1.000000
vn 0.000000 0.000000 1.000000
vn 0.000000 0.000000 1.000000
vn 0.000000 1.000000 0.000000
vn 0.000000 1.000000 -0.000000
vn 0.000000 -1.000000 0.000000
vn 0.000000 -1.000000 0.000000
vn 1.000000 0.000000 0.000000
vn 1.000000 0.000000 0.000000
vn 0.000000 1.000000 0.000000
vn 0.000000 1.000000 0.000000
vn -1.000000 0.000000 0.000000
vn -1.000000 0.000000 0.000000
vn 0.000000 -1.000000 0.000000
vn 0.000000 -1.000000 0.000000
vn -1.000000 0.000000 0.000000
vn -1.000000 0.000000 0.000000
vn -0.000000 1.000000 0.000000
vn 0.000000 1.000000 0.000000
vn 1.000000 0.000000 0.000000
vn 1.000000 0.000000 0.000000
vn -0.000000 1.000000 0.000000
vn 0.000000 1.000000 0.000000
vn -1.000000 0.000000 0.000000
vn -1.000000 0.000000 0.000000
vn -0.000000 -1.000000 0.000000
vn 0.000000 -1.000000 -0.000000
vn 1.000000 0.000000 0.000000
vn 1.000000 0.000000 0.000000
vn -0.000000 -1.000000 0.000000
vn 0.000000 -1.000000 -0.000000
vn -1.000000 0.000000 0.000000
vn -1.000000 0.000000 0.000000
vn 0.000000 1.000000 0.000000
vn 0.000000 1.000000 0.000000
vn -1.000000 0.000000 0.000000
vn -1.000000 0.000000 0.000000
vn 0.000000 -1.000000 0.000000
vn 0.000000 -1.000000 0.000000
vn 1.000000 0.000000 0.000000
vn 1.000000 0.000000 0.000000
vn 0.000000 1.000000 0.000000
vn 0.000000 1.000000 0.000000
vn 1.000000 0.000000 0.000000
vn 1.000000 0.000000 0.000000
vn -0.000000 -1.000000 -0.000000
vn 0.000000 -1.000000 0.000000
vn -1.000000 0.000000 0.000000
vn -1.000000 0.000000 0.000000
vn -0.000000 -1.000000 0.000000
vn 0.000000 -1.000000 -0.000000
vn 1.000000 0.000000 0.000000
vn 1.000000 0.000000 0.000000
vn -0.000000 1.000000 0.000000
vn 0.000000 1.000000 0.000000
vn -1.000000 0.000000 0.000000
vn -1.000000 0.000000 0.000000
vn -0.000000 1.000000 0.000000
vn 0.000000 1.000000 0.000000
vn 1.000000 0.000000 0.000000
vn 1.000000 0.000000 0.000000
vn 0.000000 0.000000 1.000000
vn 0.000000 0.000000 1.000000
vn 0.000000 0.000000 1.000000
vn 0.000000 0.000000 1.000000
vn 0.000000 0.000000 1.000000
vn 0.000000 0.000000 1.000000
vn 0.000000 0.000000 1.000000
vn 0.000000 0.000000 1.000000
vn 0.000000 0.000000 1.000000
vn 0.000000 0.000000 1.000000
vn 0.000000 0.000000 1.000000
vn 0.000000 0.000000 1.000000
vn 0.000000 0.000000 1.000000
vn 0.000000 0.000000 1.000000
vn 0.000000 0.000000 1.000000
vn 0.000000 0.000000 1.000000
vn 0.000000 0.000000 1.000000
vn 0.000000 0.000000 1.000000
vn 0.000000 0.000000 1.000000
vn 0.000000 0.000000 1.000000
vn 0.000000 0.000000 1.000000
vn 0.000000 0.000000 1.000000
vn 0.000000 0.000000 1.000000
vn 0.000000 0.000000 1.000000
vn 0.000000 0.000000 1.000000
vn 0.000000 0.000000 1.000000
f 1//1 2//1 3//1
f 3//2 2//2 4//2
f 1//3 3//3 5//3
f 1//4 5//4 6//4
f 4//5 2//5 7//5
f 4//6 7//6 8//6
f 6//7 2//7 1//7
f 6//8 7//8 2//8
f 9//9 3//9 10//9
f 11//10 3//10 9//10
f 12//11 9//11 13//11
f 12//12 11//12 9//12
f 14//13 15//13 12//13
f 14//14 12//14 13//14
f 16//15 17//15 18//15
f 16//16 19//16 20//16
f 5//17 11//17 20//17
f 5//18 19//18 21//18
f 5//19 3//19 11//19
f 5//20 20//20 19//20
f 22//21 16//21 18//21
f 22//22 19//22 16//22
f 23//23 24//23 25//23
f 26//24 27//24 4//24
f 26//25 25//25 24//25
f 28//26 23//26 25//26
f 29//27 25//27 26//27
f 29//28 26//28 4//28
f 30//29 31//29 32//29
f 30//30 32//30 33//30
f 34//31 30//31 35//31
f 34//32 31//32 30//32
f 8//33 36//33 34//33
f 8//34 35//34 29//34
f 8//35 29//35 4//35
f 8//36 34//36 35//36
f 21//37 36//37 8//37
f 21//38 8//38 5//38
f 27//39 10//39 3//39
f 27//40 3//40 4//40
f 7//41 6//41 5//41
f 7//42 5//42 8//42
f 37//43 13//43 9//43
f 38//44 13//44 37//44
f 9//45 10//45 37//45
f 37//46 10//46 39//46
f 27//47 40//47 10//47
f 10//48 40//48 39//48
f 27//49 26//49 41//49
f 27//50 41//50 40//50
f 42//51 26//51 24//51
f 41//52 26//52 42//52
f 24//53 23//53 42//53
f 42//54 23//54 43//54
f 23//55 28//55 43//55
f 43//56 28//56 44//56
f 28//57 25//57 44//57
f 44//58 25//58 45//58
f 25//59 29//59 45//59
f 45//60 29//60 46//60
f 47//61 29//61 35//61
f 46//62 29//62 47//62
f 35//63 30//63 48//63
f 35//64 48//64 47//64
f 30//65 33//65 49//65
f 30//66 49//66 48//66
f 33//67 32//67 50//67
f 33//68 50//68 49//68
f 32//69 31//69 51//69
f 32//70 51//70 50//70
f 34//71 52//71 31//71
f 31//72 52//72 51//72
f 34//73 36//73 52//73
f 52//74 36//74 53//74
f 54//75 36//75 21//75
f 53//76 36//76 54//76
f 21//77 19//77 55//77
f 21//78 55//78 54//78
f 22//79 56//79 19//79
f 19//80 56//80 55//80
f 22//81 18//81 56//81
f 56//82 18//82 57//82
f 18//83 17//83 57//83
f 57//84 17//84 58//84
f 17//85 16//85 58//85
f 58//86 16//86 59//86
f 16//87 20//87 60//87
f 16//88 60//88 59//88
f 20//89 61//89 60//89
f 20//90 11//90 61//90
f 11//91 12//91 62//91
f 11//92 62//92 61//92
f 12//93 15//93 63//93
f 12//94 63//94 62//94
f 15//95 14//95 64//95
f 15//96 64//96 63//96
f 14//97 13//97 38//97
f 14//98 38//98 64//98
f 38//99 37//99 39//99
f 63//100 61//100 62//100
f 58//101 60//101 61//101
f 58//102 61//102 63//102
f 57//103 63//103 64//103
f 57//104 58//104 63//104
f 59//105 60//105 58//105
f 56//106 54//106 55//106
f 40//107 42//107 38//107
f 40//108 38//108 39//108
f 43//109 64//109 38//109
f 43//110 38//110 42//110
f 41//111 42//111 40//111
f 46//112 44//112 45//112
f 50//113 57//113 64//113
f 50//114 64//114 43//114
f 49//115 43//115 44//115
f 49//116 50//116 43//116
f 51//117 56//117 57//117
f 51//118 57//118 50//118
f 47//119 48//119 49//119
f 47//120 44//120 46//120
f 47//121 49//121 44//121
f 53//122 51//122 52//122
f 53//123 54//123 56//123
f 53//124 56//124 51//124
