# Created by FreeCAD <https://www.freecad.org>
v -58.000000 99.250000 71.988930
v -57.500000 99.250000 71.988930
v -60.500000 99.250000 69.488930
v -59.500000 99.250000 54.172134
v -60.500000 99.250000 54.172134
v -59.500000 99.250000 53.172134
v -59.500000 99.250000 38.172134
v -60.500000 99.250000 53.172134
v -60.500000 99.250000 38.172134
v -59.500000 99.250000 37.172134
v -59.500000 99.250000 22.172134
v -60.500000 99.250000 37.172134
v -60.500000 99.250000 22.172134
v -59.500000 99.250000 21.172134
v -59.500000 99.250000 6.172134
v -60.500000 99.250000 21.172134
v -60.500000 99.250000 6.172134
v -59.500000 99.250000 5.172134
v -60.500000 99.250000 0.488932
v -60.500000 99.250000 5.172134
v -57.500000 99.250000 0.488932
v -60.500000 0.250000 54.172134
v -60.500000 0.250000 69.488930
v -58.000000 0.250000 71.988930
v -59.500000 0.250000 54.172134
v -57.500000 0.250000 71.988930
v -59.500000 0.250000 53.172134
v -57.500000 93.500000 0.488932
v -57.500000 6.500000 0.488932
v -57.500000 6.500000 -4.761068
v -57.500000 93.500000 -4.761068
v -57.500000 0.250000 0.488932
v -60.500000 0.250000 53.172134
v -60.500000 93.500000 0.488932
v -60.500000 0.250000 38.172134
v -60.500000 6.500000 -4.761068
v -60.500000 6.500000 0.488932
v -60.500000 93.500000 -4.761068
v -60.500000 0.250000 0.488932
v -60.500000 0.250000 5.172134
v -59.500000 0.250000 38.172134
v -59.500000 0.250000 5.172134
v -59.500000 0.250000 37.172134
v -59.500000 0.250000 6.172134
v -60.500000 0.250000 37.172134
v -60.500000 0.250000 6.172134
v -60.500000 0.250000 22.172134
v -60.500000 0.250000 21.172134
v -59.500000 0.250000 22.172134
v -59.500000 0.250000 21.172134
vn -0.000000 1.000000 0.000000
vn 0.000000 1.000000 0.000000
vn 0.000000 1.000000 0.000000
vn 0.000000 1.000000 0.000000
vn 0.000000 1.000000 0.000000
vn 0.000000 1.000000 0.000000
vn 0.000000 1.000000 0.000000
vn 0.000000 1.000000 0.000000
vn 0.000000 1.000000 0.000000
vn 0.000000 1.000000 0.000000
vn 0.000000 1.000000 0.000000
vn 0.000000 1.000000 0.000000
vn 0.000000 1.000000 0.000000
vn 0.000000 1.000000 0.000000
vn 0.000000 1.000000 0.000000
vn 0.000000 1.000000 0.000000
vn 0.000000 1.000000 0.000000
vn 0.000000 1.000000 0.000000
vn 0.000000 1.000000 0.000000
vn -1.000000 0.000000 0.000000
vn -1.000000 0.000000 0.000000
vn -0.707107 0.000000 0.707107
vn -0.707107 0.000000 0.707107
vn 0.000000 0.000000 -1.000000
vn 0.000000 0.000000 -1.000000
vn 0.000000 -0.000000 1.000000
vn 0.000000 0.000000 1.000000
vn -1.000000 0.000000 0.000000
vn -1.000000 0.000000 0.000000
vn 1.000000 0.000000 0.000000
vn 1.000000 0.000000 0.000000
vn 1.000000 -0.000000 0.000000
vn 1.000000 0.000000 0.000000
vn 1.000000 0.000000 0.000000
vn 1.000000 -0.000000 0.000000
vn -0.000000 0.000000 1.000000
vn 0.000000 0.000000 1.000000
vn -0.000000 -0.000000 -1.000000
vn 0.000000 0.000000 -1.000000
vn -1.000000 0.000000 0.000000
vn -1.000000 0.000000 0.000000
vn -1.000000 0.000000 0.000000
vn -1.000000 0.000000 0.000000
vn -1.000000 0.000000 0.000000
vn -1.000000 0.000000 0.000000
vn -1.000000 0.000000 0.000000
vn -1.000000 0.000000 0.000000
vn 0.000000 0.000000 -1.000000
vn 0.000000 0.000000 -1.000000
vn -0.000000 0.000000 1.000000
vn 0.000000 0.000000 1.000000
vn -1.000000 0.000000 0.000000
vn -1.000000 0.000000 0.000000
vn -1.000000 0.000000 0.000000
vn -1.000000 0.000000 0.000000
vn -0.000000 0.000000 1.000000
vn 0.000000 0.000000 1.000000
vn 0.000000 0.000000 -1.000000
vn 0.000000 0.000000 -1.000000
vn -1.000000 0.000000 0.000000
vn -1.000000 0.000000 0.000000
vn -1.000000 0.000000 0.000000
vn -1.000000 0.000000 0.000000
vn 0.000000 0.000000 -1.000000
vn 0.000000 0.000000 -1.000000
vn -0.000000 0.000000 1.000000
vn 0.000000 0.000000 1.000000
vn -1.000000 0.000000 0.000000
vn -1.000000 0.000000 0.000000
vn 0.000000 -1.000000 0.000000
vn 0.000000 -1.000000 0.000000
vn 0.000000 -1.000000 0.000000
vn 0.000000 -1.000000 0.000000
vn 0.000000 -1.000000 0.000000
vn 0.000000 -1.000000 0.000000
vn 0.000000 -1.000000 0.000000
vn 0.000000 -1.000000 0.000000
vn 0.000000 -1.000000 0.000000
vn 0.000000 -1.000000 0.000000
vn 0.000000 -1.000000 0.000000
vn 0.000000 -1.000000 0.000000
vn 0.000000 -1.000000 0.000000
vn 0.000000 -1.000000 0.000000
vn 0.000000 -1.000000 0.000000
vn 0.000000 -1.000000 0.000000
vn 0.000000 -1.000000 0.000000
vn 0.000000 -1.000000 0.000000
vn 0.000000 -1.000000 0.000000
vn 0.000000 1.000000 0.000000
vn 0.000000 1.000000 0.000000
vn -0.000000 -0.000000 -1.000000
vn 0.000000 0.000000 -1.000000
vn 0.000000 -1.000000 0.000000
vn 0.000000 -1.000000 0.000000
vn -0.000000 -0.000000 -1.000000
vn 0.000000 0.000000 -1.000000
f 1//1 2//1 3//1
f 3//2 4//2 5//2
f 2//3 4//3 3//3
f 6//4 7//4 8//4
f 8//5 7//5 9//5
f 10//6 11//6 12//6
f 12//7 11//7 13//7
f 14//8 15//8 16//8
f 16//9 15//9 17//9
f 18//10 19//10 20//10
f 15//11 21//11 18//11
f 14//12 21//12 15//12
f 18//13 21//13 19//13
f 2//14 21//14 4//14
f 4//15 21//15 6//15
f 6//16 21//16 7//16
f 7//17 21//17 10//17
f 10//18 21//18 11//18
f 11//19 21//19 14//19
f 5//20 22//20 3//20
f 22//21 23//21 3//21
f 24//22 3//22 23//22
f 24//23 1//23 3//23
f 22//24 5//24 25//24
f 25//25 5//25 4//25
f 26//26 2//26 24//26
f 24//27 2//27 1//27
f 27//28 25//28 6//28
f 6//29 25//29 4//29
f 2//30 28//30 21//30
f 29//31 30//31 31//31
f 29//32 31//32 28//32
f 29//33 28//33 2//33
f 26//34 32//34 29//34
f 26//35 29//35 2//35
f 8//36 33//36 6//36
f 6//37 33//37 27//37
f 21//38 28//38 19//38
f 19//39 28//39 34//39
f 9//40 33//40 8//40
f 35//41 33//41 9//41
f 19//42 34//42 20//42
f 36//43 37//43 38//43
f 38//44 37//44 34//44
f 34//45 37//45 20//45
f 39//46 40//46 37//46
f 40//47 20//47 37//47
f 35//48 9//48 41//48
f 41//49 9//49 7//49
f 20//50 40//50 18//50
f 18//51 40//51 42//51
f 43//52 41//52 10//52
f 10//53 41//53 7//53
f 42//54 44//54 18//54
f 18//55 44//55 15//55
f 12//56 45//56 10//56
f 10//57 45//57 43//57
f 46//58 17//58 44//58
f 44//59 17//59 15//59
f 13//60 45//60 12//60
f 47//61 45//61 13//61
f 17//62 48//62 16//62
f 46//63 48//63 17//63
f 47//64 13//64 49//64
f 49//65 13//65 11//65
f 16//66 48//66 14//66
f 14//67 48//67 50//67
f 50//68 49//68 14//68
f 14//69 49//69 11//69
f 32//70 42//70 39//70
f 39//71 42//71 40//71
f 32//72 44//72 42//72
f 44//73 50//73 46//73
f 46//74 50//74 48//74
f 32//75 50//75 44//75
f 49//76 43//76 47//76
f 47//77 43//77 45//77
f 41//78 27//78 35//78
f 35//79 27//79 33//79
f 25//80 23//80 22//80
f 23//81 26//81 24//81
f 25//82 26//82 23//82
f 32//83 26//83 50//83
f 50//84 26//84 49//84
f 49//85 26//85 43//85
f 43//86 26//86 41//86
f 41//87 26//87 27//87
f 27//88 26//88 25//88
f 28//89 31//89 34//89
f 34//90 31//90 38//90
f 31//91 30//91 38//91
f 38//92 30//92 36//92
f 30//93 29//93 36//93
f 36//94 29//94 37//94
f 29//95 32//95 37//95
f 37//96 32//96 39//96
