# Created by FreeCAD <https://www.freecad.org>
v -60.000000 -0.000000 -5.040672
v 60.000000 -0.000000 -5.040672
v -60.000000 -3.000000 -5.040672
v 60.000000 -3.000000 -5.040672
v -60.000000 0.000000 70.000000
v -60.000000 -2.000000 69.183296
v -60.000000 -2.000000 70.000000
v -60.000000 -2.000000 54.068172
v -60.000000 -3.000000 54.068172
v -60.000000 -3.000000 69.183296
v -60.000000 -2.000000 38.043060
v -60.000000 -3.000000 38.043060
v -60.000000 -3.000000 53.133171
v -60.000000 -2.000000 53.133171
v -60.000000 -2.000000 22.017948
v -60.000000 -3.000000 22.017948
v -60.000000 -3.000000 37.083050
v -60.000000 -2.000000 37.083050
v -60.000000 -2.000000 5.992896
v -60.000000 -3.000000 5.992896
v -60.000000 -3.000000 21.032928
v -60.000000 -2.000000 21.032928
v -60.000000 -3.000000 4.991263
v -60.000000 -2.000000 4.991263
v 60.000000 -2.000000 69.183296
v 60.000000 0.000000 70.000000
v 60.000000 -2.000000 70.000000
v 60.000000 -2.000000 54.068302
v 60.000000 -3.000000 54.068302
v 60.000000 -3.000000 69.183296
v 60.000000 -3.000000 38.043236
v 60.000000 -2.000000 53.133171
v 60.000000 -3.000000 53.133171
v 60.000000 -2.000000 38.043236
v 60.000000 -3.000000 22.018169
v 60.000000 -2.000000 37.083050
v 60.000000 -3.000000 37.083050
v 60.000000 -2.000000 22.018169
v 60.000000 -3.000000 6.003694
v 60.000000 -2.000000 21.032928
v 60.000000 -3.000000 21.032928
v 60.000000 -2.000000 6.003694
v 60.000000 -2.000000 4.991263
v 60.000000 -3.000000 4.991263
v 0.000000 0.000000 150.000000
v -49.167118 -3.000000 84.443840
v -60.000000 -3.000000 70.000000
v -49.167118 -2.000000 84.443840
v -37.049461 -2.000000 100.600716
v -48.212856 -2.000000 85.716194
v -48.212856 -3.000000 85.716194
v -37.049461 -3.000000 100.600716
v -24.931807 -2.000000 116.757591
v -36.151958 -2.000000 101.797394
v -36.151958 -3.000000 101.797394
v -24.931807 -3.000000 116.757591
v -12.814150 -2.000000 132.914459
v -24.091059 -2.000000 117.878586
v -24.091059 -3.000000 117.878586
v -12.814150 -3.000000 132.914459
v 0.000000 -3.000000 150.000000
v -12.030159 -2.000000 133.959793
v -12.030159 -3.000000 133.959793
v 49.167118 -3.000000 84.443840
v 60.000000 -3.000000 70.000000
v 49.167118 -2.000000 84.443840
v 48.213120 -2.000000 85.715836
v 37.049461 -3.000000 100.600716
v 48.213120 -3.000000 85.715836
v 37.049461 -2.000000 100.600716
v 36.152157 -2.000000 101.797127
v 24.931807 -3.000000 116.757591
v 36.152157 -3.000000 101.797127
v 24.931807 -2.000000 116.757591
v 24.091190 -2.000000 117.878410
v 12.814150 -2.000000 132.914459
v 24.091190 -3.000000 117.878410
v 12.814150 -3.000000 132.914459
v 12.030224 -2.000000 133.959702
v 12.030224 -3.000000 133.959702
vn 0.000000 0.000000 -1.000000
vn 0.000000 0.000000 -1.000000
vn -1.000000 -0.000000 0.000000
vn -1.000000 0.000000 0.000000
vn -1.000000 0.000000 0.000000
vn -1.000000 0.000000 0.000000
vn -1.000000 0.000000 0.000000
vn -1.000000 0.000000 0.000000
vn -1.000000 0.000000 0.000000
vn -1.000000 0.000000 0.000000
vn -1.000000 0.000000 0.000000
vn -1.000000 0.000000 0.000000
vn -1.000000 0.000000 0.000000
vn -1.000000 0.000000 0.000000
vn -1.000000 0.000000 0.000000
vn -1.000000 0.000000 0.000000
vn -1.000000 0.000000 0.000000
vn -1.000000 0.000000 0.000000
vn -1.000000 0.000000 0.000000
vn -1.000000 0.000000 0.000000
vn -1.000000 0.000000 0.000000
vn -1.000000 0.000000 0.000000
vn 1.000000 0.000000 0.000000
vn 1.000000 0.000000 0.000000
vn 1.000000 0.000000 0.000000
vn 1.000000 0.000000 0.000000
vn 1.000000 0.000000 0.000000
vn 1.000000 0.000000 0.000000
vn 1.000000 0.000000 0.000000
vn 1.000000 0.000000 0.000000
vn 1.000000 0.000000 0.000000
vn 1.000000 0.000000 0.000000
vn 1.000000 0.000000 0.000000
vn 1.000000 0.000000 0.000000
vn 1.000000 0.000000 0.000000
vn 1.000000 0.000000 -0.000000
vn 1.000000 0.000000 0.000000
vn 1.000000 0.000000 0.000000
vn 1.000000 0.000000 0.000000
vn 1.000000 0.000000 0.000000
vn 1.000000 0.000000 0.000000
vn 1.000000 0.000000 0.000000
vn 0.000000 1.000000 -0.000000
vn 0.000000 1.000000 -0.000000
vn 0.000000 1.000000 -0.000000
vn 0.000000 -1.000000 0.000000
vn 0.000000 -1.000000 0.000000
vn -0.800000 0.000000 0.600000
vn -0.800000 0.000000 0.600000
vn -0.800000 0.000000 0.600000
vn -0.800000 0.000000 0.600000
vn -0.800000 0.000000 0.600000
vn -0.800000 0.000000 0.600000
vn -0.800000 0.000000 0.600000
vn -0.800000 0.000000 0.600000
vn -0.800000 0.000000 0.600000
vn -0.800000 0.000000 0.600000
vn -0.800000 0.000000 0.600000
vn -0.800000 -0.000001 0.600000
vn -0.800001 0.000077 0.599998
vn -0.800000 -0.000007 0.600000
vn -0.800002 0.000082 0.599998
vn -0.800000 -0.000003 0.600000
vn -0.799999 -0.000022 0.600001
vn -0.800000 -0.000004 0.600000
vn -0.800004 0.000064 0.599995
vn 0.000000 -1.000000 0.000000
vn 0.000000 -1.000000 0.000000
vn 0.000000 0.000000 1.000000
vn -0.000000 0.000000 1.000000
vn 0.000000 -1.000000 0.000000
vn 0.000000 -1.000000 0.000000
vn 0.000001 0.000000 -1.000000
vn 0.000001 0.000000 -1.000000
vn 0.000000 -1.000000 0.000000
vn 0.000000 -1.000000 0.000000
vn 0.000000 0.000000 1.000000
vn -0.000000 0.000000 1.000000
vn 0.000000 -1.000000 0.000000
vn 0.000000 -1.000000 0.000000
vn 0.000001 0.000000 -1.000000
vn 0.000001 0.000000 -1.000000
vn 0.000000 -1.000000 0.000000
vn 0.000000 -1.000000 0.000000
vn 0.000000 0.000000 1.000000
vn -0.000000 0.000000 1.000000
vn 0.000000 -1.000000 0.000000
vn 0.000000 -1.000000 0.000000
vn 0.000002 0.000000 -1.000000
vn 0.000002 0.000000 -1.000000
vn 0.000000 -1.000000 0.000000
vn 0.000000 -1.000000 0.000000
vn 0.000000 0.000000 1.000000
vn -0.000000 0.000000 1.000000
vn 0.000000 -1.000000 0.000000
vn 0.000000 -1.000000 0.000000
vn 0.000090 0.000000 -1.000000
vn 0.000090 0.000000 -1.000000
vn 0.000000 -1.000000 0.000000
vn 0.000000 -1.000000 0.000000
vn 0.000000 0.000000 1.000000
vn -0.000000 0.000000 1.000000
vn 0.800000 0.000000 0.600000
vn 0.800000 0.000000 0.600000
vn 0.800000 0.000000 0.600000
vn 0.800000 0.000000 0.600000
vn 0.800000 0.000000 0.600000
vn 0.800000 0.000000 0.600000
vn 0.800000 0.000000 0.600000
vn 0.800000 0.000000 0.600000
vn 0.800000 0.000000 0.600000
vn 0.800000 0.000000 0.600000
vn 0.800000 0.000000 0.600000
vn 0.800000 -0.000001 0.600000
vn 0.799999 -0.000040 0.600001
vn 0.800000 0.000002 0.600000
vn 0.800001 0.000062 0.599998
vn 0.800000 -0.000002 0.600000
vn 0.799999 -0.000023 0.600001
vn 0.800000 -0.000004 0.600000
vn 0.800002 0.000035 0.599997
vn 0.000000 -1.000000 0.000000
vn -0.000004 0.000000 -1.000000
vn -0.000004 0.000000 -1.000000
vn 0.000000 -1.000000 0.000000
vn 0.000000 -1.000000 0.000000
vn 0.000000 0.000000 1.000000
vn -0.000000 0.000000 1.000000
vn 0.000000 -1.000000 0.000000
vn 0.000000 -1.000000 0.000000
vn -0.000004 0.000000 -1.000000
vn -0.000004 0.000000 -1.000000
vn 0.000000 -1.000000 0.000000
vn 0.000000 -1.000000 0.000000
vn 0.000000 0.000000 1.000000
vn -0.000000 0.000000 1.000000
vn 0.000000 -1.000000 0.000000
vn 0.000000 -1.000000 0.000000
vn -0.000004 0.000000 -1.000000
vn -0.000004 0.000000 -1.000000
vn 0.000000 -1.000000 0.000000
vn 0.000000 -1.000000 0.000000
vn 0.000000 0.000000 1.000000
vn -0.000000 0.000000 1.000000
vn 0.000000 -1.000000 0.000000
vn 0.000000 -1.000000 0.000000
vn -0.000004 0.000000 -1.000000
vn -0.000004 0.000000 -1.000000
vn 0.000000 -1.000000 0.000000
vn 0.000000 -1.000000 0.000000
vn 0.000000 0.000000 1.000000
vn -0.000000 0.000000 1.000000
vn 0.000000 -1.000000 0.000000
vn 0.000000 -1.000000 0.000000
vn 0.000000 0.000000 -1.000000
vn 0.000000 0.000000 -1.000000
f 1//1 2//1 3//1
f 3//2 2//2 4//2
f 5//3 6//3 7//3
f 8//4 9//4 10//4
f 8//5 10//5 6//5
f 8//6 6//6 5//6
f 11//7 12//7 13//7
f 11//8 13//8 14//8
f 15//9 16//9 17//9
f 15//10 17//10 18//10
f 19//11 20//11 21//11
f 19//12 21//12 22//12
f 3//13 23//13 24//13
f 1//14 24//14 19//14
f 1//15 3//15 24//15
f 5//16 1//16 22//16
f 22//17 1//17 19//17
f 5//18 22//18 15//18
f 5//19 15//19 18//19
f 5//20 18//20 11//20
f 5//21 11//21 14//21
f 5//22 14//22 8//22
f 25//23 26//23 27//23
f 28//24 26//24 25//24
f 29//25 25//25 30//25
f 29//26 28//26 25//26
f 31//27 32//27 33//27
f 31//28 34//28 32//28
f 35//29 36//29 37//29
f 35//30 38//30 36//30
f 39//31 40//31 41//31
f 39//32 42//32 40//32
f 2//33 42//33 43//33
f 4//34 43//34 44//34
f 4//35 2//35 43//35
f 2//36 26//36 28//36
f 2//37 28//37 32//37
f 2//38 32//38 34//38
f 2//39 34//39 36//39
f 2//40 36//40 38//40
f 2//41 38//41 40//41
f 2//42 40//42 42//42
f 26//43 2//43 1//43
f 26//44 1//44 5//44
f 45//45 26//45 5//45
f 3//46 44//46 23//46
f 4//47 44//47 3//47
f 46//48 7//48 47//48
f 48//49 5//49 7//49
f 48//50 7//50 46//50
f 49//51 50//51 51//51
f 49//52 51//52 52//52
f 53//53 54//53 55//53
f 53//54 55//54 56//54
f 57//55 58//55 59//55
f 57//56 59//56 60//56
f 61//57 62//57 63//57
f 45//58 62//58 61//58
f 45//59 5//59 48//59
f 45//60 48//60 50//60
f 45//61 50//61 49//61
f 45//62 49//62 54//62
f 45//63 54//63 53//63
f 45//64 53//64 58//64
f 45//65 58//65 57//65
f 45//66 57//66 62//66
f 6//67 25//67 7//67
f 25//68 27//68 7//68
f 10//69 30//69 6//69
f 6//70 30//70 25//70
f 9//71 29//71 10//71
f 29//72 30//72 10//72
f 28//73 9//73 8//73
f 29//74 9//74 28//74
f 32//75 28//75 14//75
f 14//76 28//76 8//76
f 13//77 33//77 14//77
f 14//78 33//78 32//78
f 12//79 31//79 13//79
f 31//80 33//80 13//80
f 31//81 12//81 11//81
f 31//82 11//82 34//82
f 18//83 36//83 11//83
f 36//84 34//84 11//84
f 17//85 37//85 18//85
f 18//86 37//86 36//86
f 16//87 35//87 17//87
f 35//88 37//88 17//88
f 35//89 16//89 15//89
f 35//90 15//90 38//90
f 22//91 40//91 15//91
f 40//92 38//92 15//92
f 21//93 41//93 22//93
f 22//94 41//94 40//94
f 20//95 39//95 21//95
f 39//96 41//96 21//96
f 39//97 20//97 19//97
f 39//98 19//98 42//98
f 24//99 43//99 19//99
f 43//100 42//100 19//100
f 23//101 44//101 24//101
f 24//102 44//102 43//102
f 27//103 64//103 65//103
f 26//104 66//104 27//104
f 27//105 66//105 64//105
f 67//106 68//106 69//106
f 67//107 70//107 68//107
f 71//108 72//108 73//108
f 71//109 74//109 72//109
f 75//110 76//110 77//110
f 77//111 76//111 78//111
f 79//112 61//112 80//112
f 79//113 45//113 61//113
f 26//114 45//114 66//114
f 66//115 45//115 67//115
f 67//116 45//116 70//116
f 70//117 45//117 71//117
f 71//118 45//118 74//118
f 74//119 45//119 75//119
f 75//120 45//120 76//120
f 76//121 45//121 79//121
f 80//122 61//122 63//122
f 80//123 63//123 62//123
f 80//124 62//124 79//124
f 57//125 79//125 62//125
f 76//126 79//126 57//126
f 60//127 78//127 57//127
f 57//128 78//128 76//128
f 77//129 78//129 59//129
f 59//130 78//130 60//130
f 77//131 59//131 58//131
f 77//132 58//132 75//132
f 53//133 75//133 58//133
f 74//134 75//134 53//134
f 56//135 72//135 53//135
f 53//136 72//136 74//136
f 73//137 72//137 55//137
f 55//138 72//138 56//138
f 73//139 55//139 54//139
f 73//140 54//140 71//140
f 49//141 71//141 54//141
f 70//142 71//142 49//142
f 52//143 68//143 49//143
f 49//144 68//144 70//144
f 69//145 68//145 51//145
f 51//146 68//146 52//146
f 67//147 51//147 50//147
f 69//148 51//148 67//148
f 48//149 67//149 50//149
f 66//150 67//150 48//150
f 46//151 64//151 48//151
f 48//152 64//152 66//152
f 65//153 64//153 47//153
f 47//154 64//154 46//154
f 65//155 47//155 7//155
f 65//156 7//156 27//156
