# Created by FreeCAD <https://www.freecad.org>
v -55.000000 -3.000000 -3.000000
v -55.000000 -3.000000 3.000000
v -55.000000 -1.000000 0.000000
v -55.000000 1.000000 0.000000
v -55.000000 3.000000 3.000000
v -55.000000 -1.000000 -3.000000
v -55.000000 3.000000 -3.000000
v -55.000000 1.000000 -3.000000
v -50.000000 -1.000000 -3.000000
v -50.000000 -3.000000 -3.000000
v -50.000000 -1.000000 0.000000
v -52.133472 -1.000000 -1.159914
v -52.150883 -1.000000 -1.142067
v -52.169159 -1.000000 -1.125109
v -52.116978 -1.000000 -1.178606
v -52.188255 -1.000000 -1.109084
v -52.101433 -1.000000 -1.198098
v -52.208130 -1.000000 -1.094031
v -52.086880 -1.000000 -1.218340
v -52.228725 -1.000000 -1.079987
v -52.073353 -1.000000 -1.239282
v -52.250000 -1.000000 -1.066987
v -52.060890 -1.000000 -1.260873
v -52.271896 -1.000000 -1.055064
v -52.049515 -1.000000 -1.283058
v -52.294357 -1.000000 -1.044247
v -52.039261 -1.000000 -1.305783
v -52.317329 -1.000000 -1.034563
v -52.030155 -1.000000 -1.328990
v -52.340755 -1.000000 -1.026036
v -52.022213 -1.000000 -1.352622
v -52.364578 -1.000000 -1.018688
v -52.015461 -1.000000 -1.376621
v -52.388741 -1.000000 -1.012536
v -52.009914 -1.000000 -1.400927
v -52.413177 -1.000000 -1.007596
v -52.005585 -1.000000 -1.425479
v -52.437828 -1.000000 -1.003880
v -52.002483 -1.000000 -1.450216
v -52.462635 -1.000000 -1.001398
v -52.000622 -1.000000 -1.475077
v -52.487534 -1.000000 -1.000155
v -52.000000 -1.000000 -1.500000
v -52.512466 -1.000000 -1.000155
v -52.000622 -1.000000 -1.524923
v -52.002483 -1.000000 -1.549784
v -52.005585 -1.000000 -1.574521
v -52.009914 -1.000000 -1.599073
v -52.015461 -1.000000 -1.623379
v -52.022213 -1.000000 -1.647378
v -52.030155 -1.000000 -1.671010
v -52.039261 -1.000000 -1.694217
v -52.049515 -1.000000 -1.716942
v -52.060890 -1.000000 -1.739127
v -52.073353 -1.000000 -1.760718
v -52.086880 -1.000000 -1.781660
v -52.101433 -1.000000 -1.801902
v -52.116978 -1.000000 -1.821394
v -52.133472 -1.000000 -1.840086
v -52.150883 -1.000000 -1.857933
v -52.169159 -1.000000 -1.874891
v -52.188255 -1.000000 -1.890916
v -52.208130 -1.000000 -1.905969
v -52.228725 -1.000000 -1.920013
v -52.250000 -1.000000 -1.933013
v -52.271896 -1.000000 -1.944936
v -52.294357 -1.000000 -1.955753
v -52.317329 -1.000000 -1.965437
v -52.340755 -1.000000 -1.973964
v -52.364578 -1.000000 -1.981312
v -52.388741 -1.000000 -1.987464
v -52.413177 -1.000000 -1.992404
v -52.437828 -1.000000 -1.996120
v -52.462635 -1.000000 -1.998602
v -53.000000 -1.000000 -1.500000
v -52.999378 -1.000000 -1.475077
v -52.997517 -1.000000 -1.450216
v -52.994415 -1.000000 -1.425479
v -52.990086 -1.000000 -1.400927
v -52.984539 -1.000000 -1.376621
v -52.977787 -1.000000 -1.352622
v -52.969845 -1.000000 -1.328990
v -52.960739 -1.000000 -1.305783
v -52.950485 -1.000000 -1.283058
v -52.939110 -1.000000 -1.260873
v -52.926647 -1.000000 -1.239282
v -52.913120 -1.000000 -1.218340
v -52.898567 -1.000000 -1.198098
v -52.883022 -1.000000 -1.178606
v -52.866528 -1.000000 -1.159914
v -52.849117 -1.000000 -1.142067
v -52.830841 -1.000000 -1.125109
v -52.811745 -1.000000 -1.109084
v -52.791870 -1.000000 -1.094031
v -52.771275 -1.000000 -1.079987
v -52.750000 -1.000000 -1.066987
v -52.728104 -1.000000 -1.055064
v -52.705643 -1.000000 -1.044247
v -52.682671 -1.000000 -1.034563
v -52.659245 -1.000000 -1.026036
v -52.635422 -1.000000 -1.018688
v -52.611259 -1.000000 -1.012536
v -52.586823 -1.000000 -1.007596
v -52.562172 -1.000000 -1.003880
v -52.537365 -1.000000 -1.001398
v -52.537365 -1.000000 -1.998602
v -52.562172 -1.000000 -1.996120
v -52.586823 -1.000000 -1.992404
v -52.611259 -1.000000 -1.987464
v -52.635422 -1.000000 -1.981312
v -52.659245 -1.000000 -1.973964
v -52.682671 -1.000000 -1.965437
v -52.705643 -1.000000 -1.955753
v -52.728104 -1.000000 -1.944936
v -52.750000 -1.000000 -1.933013
v -52.771275 -1.000000 -1.920013
v -52.791870 -1.000000 -1.905969
v -52.811745 -1.000000 -1.890916
v -52.830841 -1.000000 -1.874891
v -52.849117 -1.000000 -1.857933
v -52.866528 -1.000000 -1.840086
v -52.883022 -1.000000 -1.821394
v -52.898567 -1.000000 -1.801902
v -52.913120 -1.000000 -1.781660
v -52.926647 -1.000000 -1.760718
v -52.939110 -1.000000 -1.739127
v -52.950485 -1.000000 -1.716942
v -52.960739 -1.000000 -1.694217
v -52.969845 -1.000000 -1.671010
v -52.977787 -1.000000 -1.647378
v -52.984539 -1.000000 -1.623379
v -52.990086 -1.000000 -1.599073
v -52.994415 -1.000000 -1.574521
v -52.997517 -1.000000 -1.549784
v -52.999378 -1.000000 -1.524923
v -52.487534 -1.000000 -1.999845
v -52.512466 -1.000000 -1.999845
v 50.000000 -3.000000 0.000000
v 77.466675 -12.414137 0.000000
v 74.515579 -19.264893 0.000000
v 50.000000 3.000000 0.000000
v -50.000000 -3.000000 0.000000
v -50.000000 1.000000 0.000000
v -50.000000 3.000000 0.000000
v -52.866528 1.000000 -1.159914
v -52.849117 1.000000 -1.142067
v -52.830841 1.000000 -1.125109
v -52.883022 1.000000 -1.178606
v -52.811745 1.000000 -1.109084
v -52.898567 1.000000 -1.198098
v -52.791870 1.000000 -1.094031
v -52.913120 1.000000 -1.218340
v -52.771275 1.000000 -1.079987
v -52.926647 1.000000 -1.239282
v -52.750000 1.000000 -1.066987
v -52.939110 1.000000 -1.260873
v -52.728104 1.000000 -1.055064
v -52.950485 1.000000 -1.283058
v -52.705643 1.000000 -1.044247
v -52.960739 1.000000 -1.305783
v -52.682671 1.000000 -1.034563
v -52.969845 1.000000 -1.328990
v -52.659245 1.000000 -1.026036
v -52.977787 1.000000 -1.352622
v -52.635422 1.000000 -1.018688
v -52.984539 1.000000 -1.376621
v -52.611259 1.000000 -1.012536
v -52.990086 1.000000 -1.400927
v -52.586823 1.000000 -1.007596
v -52.994415 1.000000 -1.425479
v -52.562172 1.000000 -1.003880
v -52.997517 1.000000 -1.450216
v -52.537365 1.000000 -1.001398
v -52.999378 1.000000 -1.475077
v -52.512466 1.000000 -1.000155
v -53.000000 1.000000 -1.500000
v -52.999378 1.000000 -1.524923
v -52.997517 1.000000 -1.549784
v -52.994415 1.000000 -1.574521
v -52.990086 1.000000 -1.599073
v -52.984539 1.000000 -1.623379
v -52.977787 1.000000 -1.647378
v -52.969845 1.000000 -1.671010
v -52.960739 1.000000 -1.694217
v -52.950485 1.000000 -1.716942
v -52.939110 1.000000 -1.739127
v -52.926647 1.000000 -1.760718
v -52.913120 1.000000 -1.781660
v -52.898567 1.000000 -1.801902
v -52.883022 1.000000 -1.821394
v -52.866528 1.000000 -1.840086
v -52.849117 1.000000 -1.857933
v -52.830841 1.000000 -1.874891
v -52.811745 1.000000 -1.890916
v -52.791870 1.000000 -1.905969
v -52.771275 1.000000 -1.920013
v -52.750000 1.000000 -1.933013
v -52.728104 1.000000 -1.944936
v -52.705643 1.000000 -1.955753
v -52.682671 1.000000 -1.965437
v -52.659245 1.000000 -1.973964
v -52.635422 1.000000 -1.981312
v -52.611259 1.000000 -1.987464
v -52.586823 1.000000 -1.992404
v -52.562172 1.000000 -1.996120
v -52.537365 1.000000 -1.998602
v -52.487534 1.000000 -1.000155
v -52.462635 1.000000 -1.001398
v -52.437828 1.000000 -1.003880
v -52.413177 1.000000 -1.007596
v -52.388741 1.000000 -1.012536
v -52.364578 1.000000 -1.018688
v -52.340755 1.000000 -1.026036
v -52.317329 1.000000 -1.034563
v -52.294357 1.000000 -1.044247
v -52.271896 1.000000 -1.055064
v -52.250000 1.000000 -1.066987
v -52.228725 1.000000 -1.079987
v -52.208130 1.000000 -1.094031
v -52.188255 1.000000 -1.109084
v -52.169159 1.000000 -1.125109
v -52.150883 1.000000 -1.142067
v -52.133472 1.000000 -1.159914
v -52.116978 1.000000 -1.178606
v -52.101433 1.000000 -1.198098
v -52.086880 1.000000 -1.218340
v -52.073353 1.000000 -1.239282
v -52.060890 1.000000 -1.260873
v -52.049515 1.000000 -1.283058
v -52.039261 1.000000 -1.305783
v -52.030155 1.000000 -1.328990
v -52.022213 1.000000 -1.352622
v -52.015461 1.000000 -1.376621
v -52.009914 1.000000 -1.400927
v -52.005585 1.000000 -1.425479
v -52.002483 1.000000 -1.450216
v -52.000622 1.000000 -1.475077
v -52.000000 1.000000 -1.500000
v -50.000000 1.000000 -3.000000
v -52.000622 1.000000 -1.524923
v -52.002483 1.000000 -1.549784
v -52.005585 1.000000 -1.574521
v -52.009914 1.000000 -1.599073
v -52.015461 1.000000 -1.623379
v -52.022213 1.000000 -1.647378
v -52.030155 1.000000 -1.671010
v -52.039261 1.000000 -1.694217
v -52.049515 1.000000 -1.716942
v -52.060890 1.000000 -1.739127
v -52.073353 1.000000 -1.760718
v -52.086880 1.000000 -1.781660
v -52.101433 1.000000 -1.801902
v -52.116978 1.000000 -1.821394
v -52.133472 1.000000 -1.840086
v -52.150883 1.000000 -1.857933
v -52.169159 1.000000 -1.874891
v -52.188255 1.000000 -1.890916
v -52.208130 1.000000 -1.905969
v -52.228725 1.000000 -1.920013
v -52.250000 1.000000 -1.933013
v -52.271896 1.000000 -1.944936
v -52.294357 1.000000 -1.955753
v -52.317329 1.000000 -1.965437
v -52.340755 1.000000 -1.973964
v -52.364578 1.000000 -1.981312
v -52.388741 1.000000 -1.987464
v -52.413177 1.000000 -1.992404
v -52.437828 1.000000 -1.996120
v -52.462635 1.000000 -1.998602
v -52.512466 1.000000 -1.999845
v -52.487534 1.000000 -1.999845
v -50.000000 3.000000 -3.000000
v -52.866528 3.000000 -1.840086
v -52.849117 3.000000 -1.857933
v -52.830841 3.000000 -1.874891
v -52.883022 3.000000 -1.821394
v -52.811745 3.000000 -1.890916
v -52.898567 3.000000 -1.801902
v -52.791870 3.000000 -1.905969
v -52.913120 3.000000 -1.781660
v -52.771275 3.000000 -1.920013
v -52.926647 3.000000 -1.760718
v -52.750000 3.000000 -1.933013
v -52.939110 3.000000 -1.739127
v -52.728104 3.000000 -1.944936
v -52.950485 3.000000 -1.716942
v -52.705643 3.000000 -1.955753
v -52.960739 3.000000 -1.694217
v -52.682671 3.000000 -1.965437
v -52.969845 3.000000 -1.671010
v -52.659245 3.000000 -1.973964
v -52.977787 3.000000 -1.647378
v -52.635422 3.000000 -1.981312
v -52.984539 3.000000 -1.623379
v -52.611259 3.000000 -1.987464
v -52.990086 3.000000 -1.599073
v -52.586823 3.000000 -1.992404
v -52.994415 3.000000 -1.574521
v -52.562172 3.000000 -1.996120
v -52.997517 3.000000 -1.549784
v -52.537365 3.000000 -1.998602
v -52.999378 3.000000 -1.524923
v -52.512466 3.000000 -1.999845
v -53.000000 3.000000 -1.500000
v -52.999378 3.000000 -1.475077
v -52.997517 3.000000 -1.450216
v -52.994415 3.000000 -1.425479
v -52.990086 3.000000 -1.400927
v -52.984539 3.000000 -1.376621
v -52.977787 3.000000 -1.352622
v -52.969845 3.000000 -1.328990
v -52.960739 3.000000 -1.305783
v -52.950485 3.000000 -1.283058
v -52.487534 3.000000 -1.999845
v -52.000622 3.000000 -1.524923
v -52.000000 3.000000 -1.500000
v -52.002483 3.000000 -1.549784
v -52.005585 3.000000 -1.574521
v -52.009914 3.000000 -1.599073
v -52.015461 3.000000 -1.623379
v -52.022213 3.000000 -1.647378
v -52.030155 3.000000 -1.671010
v -52.039261 3.000000 -1.694217
v -52.049515 3.000000 -1.716942
v -52.060890 3.000000 -1.739127
v -52.073353 3.000000 -1.760718
v -52.086880 3.000000 -1.781660
v -52.101433 3.000000 -1.801902
v -52.116978 3.000000 -1.821394
v -52.133472 3.000000 -1.840086
v -52.150883 3.000000 -1.857933
v -52.169159 3.000000 -1.874891
v -52.188255 3.000000 -1.890916
v -52.208130 3.000000 -1.905969
v -52.228725 3.000000 -1.920013
v -52.250000 3.000000 -1.933013
v -52.271896 3.000000 -1.944936
v -52.294357 3.000000 -1.955753
v -52.317329 3.000000 -1.965437
v -52.340755 3.000000 -1.973964
v -52.364578 3.000000 -1.981312
v -52.388741 3.000000 -1.987464
v -52.413177 3.000000 -1.992404
v -52.437828 3.000000 -1.996120
v -52.462635 3.000000 -1.998602
v -52.939110 3.000000 -1.260873
v -52.926647 3.000000 -1.239282
v -52.913120 3.000000 -1.218340
v -52.898567 3.000000 -1.198098
v -52.883022 3.000000 -1.178606
v -52.866528 3.000000 -1.159914
v -52.849117 3.000000 -1.142067
v -52.830841 3.000000 -1.125109
v -52.811745 3.000000 -1.109084
v -52.791870 3.000000 -1.094031
v -52.771275 3.000000 -1.079987
v -52.750000 3.000000 -1.066987
v -52.728104 3.000000 -1.055064
v -52.705643 3.000000 -1.044247
v -52.682671 3.000000 -1.034563
v -52.659245 3.000000 -1.026036
v -52.635422 3.000000 -1.018688
v -52.611259 3.000000 -1.012536
v -52.586823 3.000000 -1.007596
v -52.562172 3.000000 -1.003880
v -52.537365 3.000000 -1.001398
v -52.512466 3.000000 -1.000155
v -52.487534 3.000000 -1.000155
v -52.462635 3.000000 -1.001398
v -52.437828 3.000000 -1.003880
v -52.413177 3.000000 -1.007596
v -52.388741 3.000000 -1.012536
v -52.364578 3.000000 -1.018688
v -52.340755 3.000000 -1.026036
v -52.317329 3.000000 -1.034563
v -52.294357 3.000000 -1.044247
v -52.271896 3.000000 -1.055064
v -52.250000 3.000000 -1.066987
v -52.228725 3.000000 -1.079987
v -52.208130 3.000000 -1.094031
v -52.188255 3.000000 -1.109084
v -52.169159 3.000000 -1.125109
v -52.150883 3.000000 -1.142067
v -52.133472 3.000000 -1.159914
v -52.116978 3.000000 -1.178606
v -52.101433 3.000000 -1.198098
v -52.086880 3.000000 -1.218340
v -52.073353 3.000000 -1.239282
v -52.060890 3.000000 -1.260873
v -52.049515 3.000000 -1.283058
v -52.039261 3.000000 -1.305783
v -52.030155 3.000000 -1.328990
v -52.022213 3.000000 -1.352622
v -52.015461 3.000000 -1.376621
v -52.009914 3.000000 -1.400927
v -52.005585 3.000000 -1.425479
v -52.002483 3.000000 -1.450216
v -52.000622 3.000000 -1.475077
v 50.000000 3.000000 3.000000
v 50.000000 -3.000000 3.000000
v 77.466675 -12.414137 3.000000
v 74.515579 -19.264893 3.000000
v -52.866528 -3.000000 -1.159914
v -52.849117 -3.000000 -1.142067
v -52.830841 -3.000000 -1.125109
v -52.883022 -3.000000 -1.178606
v -52.811745 -3.000000 -1.109084
v -52.898567 -3.000000 -1.198098
v -52.791870 -3.000000 -1.094031
v -52.913120 -3.000000 -1.218340
v -52.771275 -3.000000 -1.079987
v -52.926647 -3.000000 -1.239282
v -52.750000 -3.000000 -1.066987
v -52.939110 -3.000000 -1.260873
v -52.728104 -3.000000 -1.055064
v -52.950485 -3.000000 -1.283058
v -52.705643 -3.000000 -1.044247
v -52.960739 -3.000000 -1.305783
v -52.682671 -3.000000 -1.034563
v -52.969845 -3.000000 -1.328990
v -52.659245 -3.000000 -1.026036
v -52.977787 -3.000000 -1.352622
v -52.635422 -3.000000 -1.018688
v -52.984539 -3.000000 -1.376621
v -52.611259 -3.000000 -1.012536
v -52.990086 -3.000000 -1.400927
v -52.586823 -3.000000 -1.007596
v -52.994415 -3.000000 -1.425479
v -52.562172 -3.000000 -1.003880
v -52.997517 -3.000000 -1.450216
v -52.537365 -3.000000 -1.001398
v -52.999378 -3.000000 -1.475077
v -52.512466 -3.000000 -1.000155
v -53.000000 -3.000000 -1.500000
v -52.487534 -3.000000 -1.000155
v -52.999378 -3.000000 -1.524923
v -52.462635 -3.000000 -1.001398
v -52.997517 -3.000000 -1.549784
v -52.994415 -3.000000 -1.574521
v -52.990086 -3.000000 -1.599073
v -52.984539 -3.000000 -1.623379
v -52.977787 -3.000000 -1.647378
v -52.969845 -3.000000 -1.671010
v -52.960739 -3.000000 -1.694217
v -52.950485 -3.000000 -1.716942
v -52.939110 -3.000000 -1.739127
v -52.926647 -3.000000 -1.760718
v -52.913120 -3.000000 -1.781660
v -52.898567 -3.000000 -1.801902
v -52.883022 -3.000000 -1.821394
v -52.866528 -3.000000 -1.840086
v -52.849117 -3.000000 -1.857933
v -52.830841 -3.000000 -1.874891
v -52.811745 -3.000000 -1.890916
v -52.791870 -3.000000 -1.905969
v -52.771275 -3.000000 -1.920013
v -52.750000 -3.000000 -1.933013
v -52.728104 -3.000000 -1.944936
v -52.705643 -3.000000 -1.955753
v -52.682671 -3.000000 -1.965437
v -52.659245 -3.000000 -1.973964
v -52.635422 -3.000000 -1.981312
v -52.611259 -3.000000 -1.987464
v -52.586823 -3.000000 -1.992404
v -52.562172 -3.000000 -1.996120
v -52.537365 -3.000000 -1.998602
v -52.512466 -3.000000 -1.999845
v -52.437828 -3.000000 -1.003880
v -52.413177 -3.000000 -1.007596
v -52.388741 -3.000000 -1.012536
v -52.364578 -3.000000 -1.018688
v -52.340755 -3.000000 -1.026036
v -52.317329 -3.000000 -1.034563
v -52.294357 -3.000000 -1.044247
v -52.271896 -3.000000 -1.055064
v -52.250000 -3.000000 -1.066987
v -52.228725 -3.000000 -1.079987
v -52.208130 -3.000000 -1.094031
v -52.188255 -3.000000 -1.109084
v -52.169159 -3.000000 -1.125109
v -52.150883 -3.000000 -1.142067
v -52.133472 -3.000000 -1.159914
v -52.116978 -3.000000 -1.178606
v -52.101433 -3.000000 -1.198098
v -52.086880 -3.000000 -1.218340
v -52.073353 -3.000000 -1.239282
v -52.060890 -3.000000 -1.260873
v -52.049515 -3.000000 -1.283058
v -52.039261 -3.000000 -1.305783
v -52.030155 -3.000000 -1.328990
v -52.022213 -3.000000 -1.352622
v -52.015461 -3.000000 -1.376621
v -52.009914 -3.000000 -1.400927
v -52.005585 -3.000000 -1.425479
v -52.002483 -3.000000 -1.450216
v -52.000622 -3.000000 -1.475077
v -52.000000 -3.000000 -1.500000
v -52.487534 -3.000000 -1.999845
v -52.000622 -3.000000 -1.524923
v -52.002483 -3.000000 -1.549784
v -52.005585 -3.000000 -1.574521
v -52.009914 -3.000000 -1.599073
v -52.015461 -3.000000 -1.623379
v -52.022213 -3.000000 -1.647378
v -52.030155 -3.000000 -1.671010
v -52.039261 -3.000000 -1.694217
v -52.049515 -3.000000 -1.716942
v -52.060890 -3.000000 -1.739127
v -52.073353 -3.000000 -1.760718
v -52.086880 -3.000000 -1.781660
v -52.101433 -3.000000 -1.801902
v -52.116978 -3.000000 -1.821394
v -52.133472 -3.000000 -1.840086
v -52.150883 -3.000000 -1.857933
v -52.169159 -3.000000 -1.874891
v -52.188255 -3.000000 -1.890916
v -52.208130 -3.000000 -1.905969
v -52.228725 -3.000000 -1.920013
v -52.250000 -3.000000 -1.933013
v -52.271896 -3.000000 -1.944936
v -52.294357 -3.000000 -1.955753
v -52.317329 -3.000000 -1.965437
v -52.340755 -3.000000 -1.973964
v -52.364578 -3.000000 -1.981312
v -52.388741 -3.000000 -1.987464
v -52.413177 -3.000000 -1.992404
v -52.437828 -3.000000 -1.996120
v -52.462635 -3.000000 -1.998602
vn -1.000000 0.000000 0.000000
vn -1.000000 0.000000 0.000000
vn -1.000000 0.000000 0.000000
vn -1.000000 0.000000 0.000000
vn -1.000000 0.000000 0.000000
vn -1.000000 0.000000 0.000000
vn 0.000000 0.000000 -1.000000
vn 0.000000 0.000000 -1.000000
vn 0.000000 1.000000 0.000000
vn 0.000000 1.000000 -0.000000
vn 0.000000 1.000000 0.000000
vn 0.000000 1.000000 -0.000000
vn 0.000000 1.000000 0.000000
vn 0.000000 1.000000 -0.000000
vn 0.000000 1.000000 0.000000
vn 0.000000 1.000000 -0.000000
vn 0.000000 1.000000 0.000000
vn 0.000000 1.000000 -0.000000
vn 0.000000 1.000000 0.000000
vn 0.000000 1.000000 -0.000000
vn 0.000000 1.000000 0.000000
vn 0.000000 1.000000 -0.000000
vn 0.000000 1.000000 0.000000
vn 0.000000 1.000000 -0.000000
vn 0.000000 1.000000 0.000000
vn 0.000000 1.000000 -0.000000
vn 0.000000 1.000000 0.000000
vn 0.000000 1.000000 -0.000000
vn 0.000000 1.000000 0.000000
vn 0.000000 1.000000 -0.000000
vn 0.000000 1.000000 0.000000
vn 0.000000 1.000000 -0.000000
vn 0.000000 1.000000 0.000000
vn 0.000000 1.000000 -0.000000
vn 0.000000 1.000000 0.000000
vn 0.000000 1.000000 -0.000000
vn 0.000000 1.000000 0.000000
vn 0.000000 1.000000 -0.000000
vn 0.000000 1.000000 -0.000000
vn 0.000000 1.000000 0.000000
vn 0.000000 1.000000 -0.000000
vn 0.000000 1.000000 0.000000
vn 0.000000 1.000000 0.000000
vn 0.000000 1.000000 0.000000
vn 0.000000 1.000000 0.000000
vn 0.000000 1.000000 0.000000
vn 0.000000 1.000000 0.000000
vn 0.000000 1.000000 0.000000
vn 0.000000 1.000000 0.000000
vn 0.000000 1.000000 0.000000
vn 0.000000 1.000000 0.000000
vn 0.000000 1.000000 0.000000
vn 0.000000 1.000000 0.000000
vn 0.000000 1.000000 0.000000
vn 0.000000 1.000000 0.000000
vn 0.000000 1.000000 0.000000
vn 0.000000 1.000000 0.000000
vn 0.000000 1.000000 0.000000
vn 0.000000 1.000000 0.000000
vn 0.000000 1.000000 0.000000
vn 0.000000 1.000000 0.000000
vn 0.000000 1.000000 0.000000
vn 0.000000 1.000000 0.000000
vn 0.000000 1.000000 0.000000
vn 0.000000 1.000000 0.000000
vn 0.000000 1.000000 0.000000
vn 0.000000 1.000000 0.000000
vn 0.000000 1.000000 0.000000
vn 0.000000 1.000000 0.000000
vn 0.000000 1.000000 0.000000
vn 0.000000 1.000000 0.000000
vn 0.000000 1.000000 -0.000000
vn 0.000000 1.000000 -0.000000
vn 0.000000 1.000000 -0.000000
vn 0.000000 1.000000 -0.000000
vn 0.000000 1.000000 -0.000000
vn 0.000000 1.000000 -0.000000
vn 0.000000 1.000000 -0.000000
vn 0.000000 1.000000 -0.000000
vn 0.000000 1.000000 -0.000000
vn 0.000000 1.000000 -0.000000
vn 0.000000 1.000000 -0.000000
vn 0.000000 1.000000 -0.000000
vn 0.000000 1.000000 -0.000000
vn 0.000000 1.000000 -0.000000
vn 0.000000 1.000000 -0.000000
vn 0.000000 1.000000 -0.000000
vn 0.000000 1.000000 -0.000000
vn 0.000000 1.000000 -0.000000
vn 0.000000 1.000000 -0.000000
vn 0.000000 1.000000 -0.000000
vn 0.000000 1.000000 -0.000000
vn 0.000000 1.000000 -0.000000
vn 0.000000 1.000000 -0.000000
vn 0.000000 1.000000 -0.000000
vn 0.000000 1.000000 -0.000000
vn 0.000000 1.000000 -0.000000
vn 0.000000 1.000000 -0.000000
vn 0.000000 1.000000 -0.000000
vn 0.000000 1.000000 -0.000000
vn 0.000000 1.000000 -0.000000
vn 0.000000 1.000000 -0.000000
vn 0.000000 1.000000 -0.000000
vn 0.000000 1.000000 0.000000
vn 0.000000 1.000000 0.000000
vn 0.000000 1.000000 0.000000
vn 0.000000 1.000000 0.000000
vn 0.000000 1.000000 0.000000
vn 0.000000 1.000000 0.000000
vn 0.000000 1.000000 0.000000
vn 0.000000 1.000000 0.000000
vn 0.000000 1.000000 0.000000
vn 0.000000 1.000000 0.000000
vn 0.000000 1.000000 0.000000
vn 0.000000 1.000000 0.000000
vn 0.000000 1.000000 0.000000
vn 0.000000 1.000000 0.000000
vn 0.000000 1.000000 0.000000
vn 0.000000 1.000000 0.000000
vn 0.000000 1.000000 0.000000
vn 0.000000 1.000000 0.000000
vn 0.000000 1.000000 0.000000
vn 0.000000 1.000000 0.000000
vn 0.000000 1.000000 0.000000
vn 0.000000 1.000000 0.000000
vn 0.000000 1.000000 0.000000
vn 0.000000 1.000000 0.000000
vn 0.000000 1.000000 0.000000
vn 0.000000 1.000000 0.000000
vn 0.000000 1.000000 0.000000
vn 0.000000 1.000000 0.000000
vn 0.000000 1.000000 0.000000
vn 0.000000 1.000000 0.000000
vn 0.000000 1.000000 0.000000
vn 0.000000 1.000000 0.000000
vn 0.000000 1.000000 0.000000
vn 0.000000 1.000000 0.000000
vn 0.000000 1.000000 0.000000
vn 0.000000 0.000000 -1.000000
vn 0.000000 0.000000 -1.000000
vn 0.000000 0.000000 -1.000000
vn 0.000000 0.000000 -1.000000
vn 0.000000 0.000000 -1.000000
vn 0.000000 0.000000 -1.000000
vn 0.000000 0.000000 -1.000000
vn 0.000000 0.000000 -1.000000
vn 0.000000 -1.000000 0.000000
vn 0.000000 -1.000000 0.000000
vn 0.000000 -1.000000 0.000000
vn 0.000000 -1.000000 0.000000
vn 0.000000 -1.000000 0.000000
vn 0.000000 -1.000000 0.000000
vn 0.000000 -1.000000 0.000000
vn 0.000000 -1.000000 0.000000
vn 0.000000 -1.000000 0.000000
vn 0.000000 -1.000000 0.000000
vn 0.000000 -1.000000 0.000000
vn 0.000000 -1.000000 0.000000
vn 0.000000 -1.000000 0.000000
vn 0.000000 -1.000000 0.000000
vn 0.000000 -1.000000 0.000000
vn 0.000000 -1.000000 0.000000
vn 0.000000 -1.000000 0.000000
vn 0.000000 -1.000000 0.000000
vn 0.000000 -1.000000 0.000000
vn 0.000000 -1.000000 0.000000
vn 0.000000 -1.000000 0.000000
vn 0.000000 -1.000000 0.000000
vn 0.000000 -1.000000 0.000000
vn 0.000000 -1.000000 0.000000
vn 0.000000 -1.000000 0.000000
vn 0.000000 -1.000000 0.000000
vn 0.000000 -1.000000 0.000000
vn 0.000000 -1.000000 0.000000
vn 0.000000 -1.000000 0.000000
vn 0.000000 -1.000000 0.000000
vn 0.000000 -1.000000 0.000000
vn 0.000000 -1.000000 0.000000
vn 0.000000 -1.000000 0.000000
vn 0.000000 -1.000000 0.000000
vn 0.000000 -1.000000 0.000000
vn 0.000000 -1.000000 0.000000
vn 0.000000 -1.000000 0.000000
vn 0.000000 -1.000000 0.000000
vn 0.000000 -1.000000 0.000000
vn 0.000000 -1.000000 0.000000
vn 0.000000 -1.000000 0.000000
vn 0.000000 -1.000000 0.000000
vn 0.000000 -1.000000 0.000000
vn 0.000000 -1.000000 0.000000
vn 0.000000 -1.000000 0.000000
vn 0.000000 -1.000000 0.000000
vn 0.000000 -1.000000 0.000000
vn 0.000000 -1.000000 0.000000
vn 0.000000 -1.000000 0.000000
vn 0.000000 -1.000000 0.000000
vn 0.000000 -1.000000 0.000000
vn 0.000000 -1.000000 0.000000
vn 0.000000 -1.000000 0.000000
vn 0.000000 -1.000000 0.000000
vn 0.000000 -1.000000 0.000000
vn 0.000000 -1.000000 0.000000
vn 0.000000 -1.000000 0.000000
vn 0.000000 -1.000000 0.000000
vn 0.000000 -1.000000 0.000000
vn 0.000000 -1.000000 0.000000
vn 0.000000 -1.000000 0.000000
vn 0.000000 -1.000000 0.000000
vn 0.000000 -1.000000 0.000000
vn 0.000000 -1.000000 0.000000
vn 0.000000 -1.000000 0.000000
vn 0.000000 -1.000000 0.000000
vn 0.000000 -1.000000 0.000000
vn 0.000000 -1.000000 0.000000
vn 0.000000 -1.000000 0.000000
vn 0.000000 -1.000000 0.000000
vn 0.000000 -1.000000 0.000000
vn 0.000000 -1.000000 0.000000
vn 0.000000 -1.000000 0.000000
vn 0.000000 -1.000000 0.000000
vn 0.000000 -1.000000 0.000000
vn 0.000000 -1.000000 0.000000
vn 0.000000 -1.000000 0.000000
vn 0.000000 -1.000000 0.000000
vn 0.000000 -1.000000 0.000000
vn 0.000000 -1.000000 0.000000
vn 0.000000 -1.000000 0.000000
vn 0.000000 -1.000000 0.000000
vn 0.000000 -1.000000 0.000000
vn 0.000000 -1.000000 0.000000
vn 0.000000 -1.000000 0.000000
vn 0.000000 -1.000000 0.000000
vn 0.000000 -1.000000 0.000000
vn 0.000000 -1.000000 0.000000
vn 0.000000 -1.000000 0.000000
vn 0.000000 -1.000000 0.000000
vn 0.000000 -1.000000 0.000000
vn 0.000000 -1.000000 0.000000
vn 0.000000 -1.000000 0.000000
vn 0.000000 -1.000000 0.000000
vn 0.000000 -1.000000 0.000000
vn 0.000000 -1.000000 0.000000
vn 0.000000 -1.000000 0.000000
vn 0.000000 -1.000000 0.000000
vn 0.000000 -1.000000 0.000000
vn 0.000000 -1.000000 0.000000
vn 0.000000 -1.000000 0.000000
vn 0.000000 -1.000000 0.000000
vn 0.000000 -1.000000 0.000000
vn 0.000000 -1.000000 0.000000
vn 0.000000 -1.000000 0.000000
vn 0.000000 -1.000000 0.000000
vn 0.000000 -1.000000 0.000000
vn 0.000000 -1.000000 0.000000
vn 0.000000 -1.000000 0.000000
vn 0.000000 -1.000000 0.000000
vn 0.000000 -1.000000 0.000000
vn 0.000000 -1.000000 0.000000
vn 0.000000 -1.000000 0.000000
vn 0.000000 -1.000000 0.000000
vn 0.000000 -1.000000 0.000000
vn 0.000000 -1.000000 0.000000
vn 0.000000 -1.000000 0.000000
vn 0.000000 -1.000000 0.000000
vn 0.000000 -1.000000 0.000000
vn 0.000000 -1.000000 0.000000
vn 0.000000 -1.000000 0.000000
vn 0.000000 -1.000000 0.000000
vn 0.000000 -1.000000 0.000000
vn 0.000000 -1.000000 0.000000
vn 0.000000 -1.000000 0.000000
vn 0.000000 -1.000000 0.000000
vn 0.000000 -1.000000 0.000000
vn 0.000000 -1.000000 0.000000
vn 0.000000 -1.000000 0.000000
vn 0.000000 -1.000000 0.000000
vn 0.000000 0.000000 -1.000000
vn 0.000000 0.000000 -1.000000
vn 0.000000 1.000000 0.000000
vn 0.000000 1.000000 0.000000
vn 0.000000 1.000000 0.000000
vn 0.000000 1.000000 0.000000
vn 0.000000 1.000000 0.000000
vn 0.000000 1.000000 0.000000
vn 0.000000 1.000000 0.000000
vn 0.000000 1.000000 0.000000
vn 0.000000 1.000000 0.000000
vn 0.000000 1.000000 0.000000
vn 0.000000 1.000000 0.000000
vn 0.000000 1.000000 0.000000
vn 0.000000 1.000000 0.000000
vn 0.000000 1.000000 0.000000
vn 0.000000 1.000000 0.000000
vn 0.000000 1.000000 0.000000
vn 0.000000 1.000000 0.000000
vn 0.000000 1.000000 0.000000
vn 0.000000 1.000000 0.000000
vn 0.000000 1.000000 0.000000
vn 0.000000 1.000000 0.000000
vn 0.000000 1.000000 0.000000
vn 0.000000 1.000000 0.000000
vn 0.000000 1.000000 0.000000
vn 0.000000 1.000000 0.000000
vn 0.000000 1.000000 0.000000
vn 0.000000 1.000000 0.000000
vn 0.000000 1.000000 0.000000
vn 0.000000 1.000000 0.000000
vn 0.000000 1.000000 0.000000
vn 0.000000 1.000000 0.000000
vn 0.000000 1.000000 0.000000
vn 0.000000 1.000000 0.000000
vn 0.000000 1.000000 0.000000
vn 0.000000 1.000000 0.000000
vn 0.000000 1.000000 0.000000
vn 0.000000 1.000000 0.000000
vn 0.000000 1.000000 0.000000
vn 0.000000 1.000000 0.000000
vn 0.000000 1.000000 0.000000
vn 0.000000 1.000000 0.000000
vn 0.000000 1.000000 0.000000
vn 0.000000 1.000000 0.000000
vn 0.000000 1.000000 0.000000
vn 0.000000 1.000000 0.000000
vn 0.000000 1.000000 0.000000
vn 0.000000 1.000000 0.000000
vn 0.000000 1.000000 0.000000
vn 0.000000 1.000000 0.000000
vn 0.000000 1.000000 0.000000
vn 0.000000 1.000000 0.000000
vn 0.000000 1.000000 0.000000
vn 0.000000 1.000000 0.000000
vn 0.000000 1.000000 0.000000
vn 0.000000 1.000000 0.000000
vn 0.000000 1.000000 0.000000
vn 0.000000 1.000000 0.000000
vn 0.000000 1.000000 0.000000
vn 0.000000 1.000000 0.000000
vn 0.000000 1.000000 0.000000
vn 0.000000 1.000000 0.000000
vn 0.000000 1.000000 0.000000
vn 0.000000 1.000000 0.000000
vn 0.000000 1.000000 0.000000
vn 0.000000 1.000000 0.000000
vn 0.000000 1.000000 0.000000
vn 0.000000 1.000000 0.000000
vn 0.000000 1.000000 0.000000
vn 0.000000 1.000000 0.000000
vn 0.000000 1.000000 0.000000
vn 0.000000 1.000000 0.000000
vn 0.000000 1.000000 0.000000
vn 0.000000 1.000000 0.000000
vn 0.000000 1.000000 0.000000
vn 0.000000 1.000000 0.000000
vn 0.000000 1.000000 0.000000
vn 0.000000 1.000000 0.000000
vn 0.000000 1.000000 0.000000
vn 0.000000 1.000000 0.000000
vn 0.000000 1.000000 0.000000
vn 0.000000 1.000000 0.000000
vn 0.000000 1.000000 0.000000
vn 0.000000 1.000000 0.000000
vn 0.000000 1.000000 0.000000
vn 0.000000 1.000000 0.000000
vn 0.000000 1.000000 0.000000
vn 0.000000 1.000000 0.000000
vn 0.000000 1.000000 0.000000
vn 0.000000 1.000000 0.000000
vn 0.000000 1.000000 0.000000
vn 0.000000 1.000000 0.000000
vn 0.000000 1.000000 0.000000
vn 0.000000 1.000000 0.000000
vn 0.000000 1.000000 0.000000
vn 0.000000 1.000000 0.000000
vn 0.000000 1.000000 0.000000
vn 0.000000 1.000000 0.000000
vn 0.000000 1.000000 0.000000
vn 0.000000 1.000000 0.000000
vn 0.000000 1.000000 0.000000
vn 0.000000 1.000000 0.000000
vn 0.000000 1.000000 0.000000
vn 0.000000 1.000000 0.000000
vn 0.000000 1.000000 0.000000
vn 0.000000 1.000000 0.000000
vn 0.000000 1.000000 0.000000
vn 0.000000 1.000000 0.000000
vn 0.000000 1.000000 0.000000
vn 0.000000 1.000000 0.000000
vn 0.000000 1.000000 0.000000
vn 0.000000 1.000000 0.000000
vn 0.000000 1.000000 0.000000
vn 0.000000 1.000000 0.000000
vn 0.000000 1.000000 0.000000
vn 0.000000 1.000000 0.000000
vn 0.000000 1.000000 0.000000
vn 0.000000 1.000000 0.000000
vn 0.000000 1.000000 0.000000
vn 0.000000 1.000000 0.000000
vn 0.000000 1.000000 0.000000
vn 0.000000 1.000000 0.000000
vn 0.000000 1.000000 0.000000
vn 0.000000 1.000000 0.000000
vn 0.000000 1.000000 0.000000
vn 0.000000 1.000000 0.000000
vn 0.000000 1.000000 0.000000
vn 0.000000 1.000000 0.000000
vn 0.000000 1.000000 0.000000
vn 0.000000 1.000000 0.000000
vn 0.000000 1.000000 0.000000
vn 0.000000 1.000000 0.000000
vn -0.000000 1.000000 0.000000
vn 0.000000 0.000000 1.000000
vn 0.000000 0.000000 1.000000
vn 0.000000 0.000000 1.000000
vn 0.000000 0.000000 1.000000
vn 0.000000 -1.000000 0.000000
vn -0.000000 -1.000000 0.000000
vn 0.000000 -1.000000 0.000000
vn -0.000000 -1.000000 0.000000
vn 0.000000 -1.000000 0.000000
vn -0.000000 -1.000000 0.000000
vn 0.000000 -1.000000 0.000000
vn -0.000000 -1.000000 0.000000
vn 0.000000 -1.000000 0.000000
vn -0.000000 -1.000000 0.000000
vn 0.000000 -1.000000 0.000000
vn -0.000000 -1.000000 0.000000
vn -0.000000 -1.000000 0.000000
vn 0.000000 -1.000000 0.000000
vn -0.000000 -1.000000 0.000000
vn -0.000000 -1.000000 0.000000
vn -0.000000 -1.000000 0.000000
vn -0.000000 -1.000000 0.000000
vn -0.000000 -1.000000 0.000000
vn -0.000000 -1.000000 0.000000
vn -0.000000 -1.000000 0.000000
vn -0.000000 -1.000000 0.000000
vn -0.000000 -1.000000 0.000000
vn -0.000000 -1.000000 0.000000
vn -0.000000 -1.000000 0.000000
vn -0.000000 -1.000000 0.000000
vn -0.000000 -1.000000 0.000000
vn -0.000000 -1.000000 0.000000
vn -0.000000 -1.000000 0.000000
vn -0.000000 -1.000000 0.000000
vn -0.000000 -1.000000 0.000000
vn -0.000000 -1.000000 0.000000
vn 0.000000 -1.000000 0.000000
vn -0.000000 -1.000000 0.000000
vn 0.000000 -1.000000 0.000000
vn -0.000000 -1.000000 0.000000
vn -0.000000 -1.000000 0.000000
vn -0.000000 -1.000000 0.000000
vn -0.000000 -1.000000 0.000000
vn -0.000000 -1.000000 0.000000
vn -0.000000 -1.000000 0.000000
vn -0.000000 -1.000000 0.000000
vn -0.000000 -1.000000 0.000000
vn -0.000000 -1.000000 0.000000
vn -0.000000 -1.000000 0.000000
vn -0.000000 -1.000000 0.000000
vn -0.000000 -1.000000 0.000000
vn -0.000000 -1.000000 0.000000
vn -0.000000 -1.000000 0.000000
vn -0.000000 -1.000000 0.000000
vn -0.000000 -1.000000 0.000000
vn -0.000000 -1.000000 0.000000
vn -0.000000 -1.000000 0.000000
vn -0.000000 -1.000000 0.000000
vn -0.000000 -1.000000 0.000000
vn -0.000000 -1.000000 0.000000
vn -0.000000 -1.000000 0.000000
vn -0.000000 -1.000000 0.000000
vn -0.000000 -1.000000 0.000000
vn -0.000000 -1.000000 0.000000
vn -0.000000 -1.000000 0.000000
vn -0.000000 -1.000000 0.000000
vn -0.000000 -1.000000 0.000000
vn -0.000000 -1.000000 0.000000
vn -0.000000 -1.000000 0.000000
vn -0.000000 -1.000000 0.000000
vn 0.000000 -1.000000 0.000000
vn 0.000000 -1.000000 0.000000
vn 0.000000 -1.000000 0.000000
vn 0.000000 -1.000000 0.000000
vn 0.000000 -1.000000 0.000000
vn 0.000000 -1.000000 0.000000
vn 0.000000 -1.000000 0.000000
vn 0.000000 -1.000000 0.000000
vn 0.000000 -1.000000 0.000000
vn 0.000000 -1.000000 0.000000
vn 0.000000 -1.000000 0.000000
vn 0.000000 -1.000000 0.000000
vn 0.000000 -1.000000 0.000000
vn 0.000000 -1.000000 0.000000
vn 0.000000 -1.000000 0.000000
vn 0.000000 -1.000000 0.000000
vn 0.000000 -1.000000 0.000000
vn 0.000000 -1.000000 0.000000
vn 0.000000 -1.000000 0.000000
vn 0.000000 -1.000000 0.000000
vn 0.000000 -1.000000 0.000000
vn 0.000000 -1.000000 0.000000
vn 0.000000 -1.000000 0.000000
vn 0.000000 -1.000000 0.000000
vn 0.000000 -1.000000 0.000000
vn 0.000000 -1.000000 0.000000
vn 0.000000 -1.000000 0.000000
vn 0.000000 -1.000000 0.000000
vn 0.000000 -1.000000 0.000000
vn 0.000000 -1.000000 0.000000
vn 0.000000 -1.000000 0.000000
vn 0.000000 -1.000000 0.000000
vn 0.000000 -1.000000 0.000000
vn 0.000000 -1.000000 0.000000
vn 0.000000 -1.000000 0.000000
vn 0.000000 -1.000000 0.000000
vn 0.000000 -1.000000 0.000000
vn 0.000000 -1.000000 0.000000
vn 0.000000 -1.000000 0.000000
vn 0.000000 -1.000000 0.000000
vn 0.000000 -1.000000 0.000000
vn 0.000000 -1.000000 0.000000
vn 0.000000 -1.000000 0.000000
vn 0.000000 -1.000000 0.000000
vn 0.000000 -1.000000 0.000000
vn 0.000000 -1.000000 0.000000
vn 0.000000 -1.000000 0.000000
vn 0.000000 -1.000000 0.000000
vn 0.000000 -1.000000 0.000000
vn 0.000000 -1.000000 0.000000
vn 0.000000 -1.000000 0.000000
vn 0.000000 -1.000000 0.000000
vn 0.000000 -1.000000 0.000000
vn 0.000000 -1.000000 0.000000
vn 0.000000 -1.000000 0.000000
vn 0.000000 -1.000000 0.000000
vn 0.000000 -1.000000 0.000000
vn 0.000000 -1.000000 0.000000
vn 0.000000 -1.000000 0.000000
vn 0.000000 -1.000000 0.000000
vn 0.000000 -1.000000 0.000000
vn 0.000000 -1.000000 0.000000
vn 0.000000 -1.000000 0.000000
vn 0.000000 -1.000000 0.000000
vn 0.000000 -1.000000 0.000000
vn -0.000000 -1.000000 0.000000
vn 1.000000 0.000000 0.000000
vn 1.000000 0.000000 0.000000
vn 0.999689 0.000000 -0.024941
vn 0.999689 0.000000 -0.024941
vn 0.997208 0.000000 -0.074670
vn 0.997208 0.000000 -0.074670
vn 0.992232 0.000000 -0.124398
vn 0.992232 0.000000 -0.124398
vn 0.984804 0.000000 -0.173669
vn 0.984804 0.000000 -0.173669
vn 0.974937 0.000000 -0.222481
vn 0.974937 0.000000 -0.222481
vn 0.962627 0.000000 -0.270832
vn 0.947902 0.000000 -0.318564
vn 0.962627 0.000000 -0.270832
vn 0.947902 0.000000 -0.318564
vn 0.930909 0.000000 -0.365252
vn 0.930909 0.000000 -0.365252
vn 0.911502 0.000000 -0.411296
vn 0.911502 0.000000 -0.411296
vn 0.889844 0.000000 -0.456266
vn 0.866073 0.000000 -0.499918
vn 0.889844 0.000000 -0.456266
vn 0.866073 0.000000 -0.499918
vn 0.840010 0.000000 -0.542570
vn 0.840010 0.000000 -0.542570
vn 0.811938 0.000000 -0.583744
vn 0.811938 0.000000 -0.583744
vn 0.781816 0.000000 -0.623509
vn 0.781816 0.000000 -0.623509
vn 0.749811 0.000000 -0.661653
vn 0.749811 0.000000 -0.661653
vn 0.715812 0.000000 -0.698293
vn 0.715812 0.000000 -0.698293
vn 0.680158 0.000000 -0.733066
vn 0.680158 0.000000 -0.733066
vn 0.642821 0.000000 -0.766016
vn 0.642821 0.000000 -0.766016
vn 0.603776 0.000000 -0.797154
vn 0.603776 0.000000 -0.797154
vn 0.563378 0.000000 -0.826199
vn 0.563378 0.000000 -0.826199
vn 0.521411 0.000000 -0.853306
vn 0.521411 0.000000 -0.853306
vn 0.478225 0.000000 -0.878237
vn 0.478225 0.000000 -0.878237
vn 0.433898 0.000000 -0.900962
vn 0.433898 0.000000 -0.900962
vn 0.388445 0.000000 -0.921472
vn 0.388445 0.000000 -0.921472
vn 0.342035 0.000000 -0.939687
vn 0.342035 0.000000 -0.939687
vn 0.294762 0.000000 -0.955571
vn 0.294762 0.000000 -0.955571
vn 0.246732 0.000000 -0.969084
vn 0.246732 0.000000 -0.969084
vn 0.198141 0.000000 -0.980173
vn 0.198141 0.000000 -0.980173
vn 0.149053 0.000000 -0.988829
vn 0.149053 0.000000 -0.988829
vn 0.099567 0.000000 -0.995031
vn 0.099567 0.000000 -0.995031
vn 0.049846 0.000000 -0.998757
vn 0.049846 0.000000 -0.998757
vn 0.000000 0.000000 -1.000000
vn -0.049846 0.000000 -0.998757
vn 0.000000 0.000000 -1.000000
vn -0.049846 0.000000 -0.998757
vn -0.099567 0.000000 -0.995031
vn -0.099567 -0.000000 -0.995031
vn -0.149053 0.000000 -0.988829
vn -0.149053 -0.000000 -0.988829
vn -0.198141 0.000000 -0.980173
vn -0.198141 -0.000000 -0.980173
vn -0.246732 -0.000000 -0.969084
vn -0.246732 0.000000 -0.969084
vn -0.294762 -0.000000 -0.955571
vn -0.294762 0.000000 -0.955571
vn -0.342035 -0.000000 -0.939687
vn -0.342035 0.000000 -0.939687
vn -0.388445 -0.000000 -0.921472
vn -0.388445 0.000000 -0.921472
vn -0.433898 -0.000000 -0.900962
vn -0.433898 0.000000 -0.900962
vn -0.478225 -0.000000 -0.878237
vn -0.478225 0.000000 -0.878237
vn -0.521411 -0.000000 -0.853306
vn -0.521411 0.000000 -0.853306
vn -0.563378 -0.000000 -0.826199
vn -0.563378 0.000000 -0.826199
vn -0.603776 -0.000000 -0.797154
vn -0.603776 0.000000 -0.797154
vn -0.642821 -0.000000 -0.766016
vn -0.642821 0.000000 -0.766016
vn -0.680158 -0.000000 -0.733066
vn -0.680158 0.000000 -0.733066
vn -0.715812 -0.000000 -0.698293
vn -0.715812 0.000000 -0.698293
vn -0.749811 0.000000 -0.661653
vn -0.749811 0.000000 -0.661653
vn -0.781816 -0.000000 -0.623509
vn -0.781816 0.000000 -0.623509
vn -0.811938 -0.000000 -0.583744
vn -0.811938 0.000000 -0.583744
vn -0.840010 -0.000000 -0.542570
vn -0.840010 0.000000 -0.542570
vn -0.866073 0.000000 -0.499918
vn -0.866073 0.000000 -0.499918
vn -0.889844 -0.000000 -0.456266
vn -0.889844 0.000000 -0.456266
vn -0.911502 -0.000000 -0.411296
vn -0.911502 0.000000 -0.411296
vn -0.930909 -0.000000 -0.365252
vn -0.930909 0.000000 -0.365252
vn -0.947902 -0.000000 -0.318564
vn -0.947902 0.000000 -0.318564
vn -0.962627 0.000000 -0.270832
vn -0.962627 -0.000000 -0.270832
vn -0.974937 0.000000 -0.222481
vn -0.974937 -0.000000 -0.222481
vn -0.984804 0.000000 -0.173669
vn -0.984804 -0.000000 -0.173669
vn -0.992232 0.000000 -0.124398
vn -0.992232 -0.000000 -0.124398
vn -0.997208 -0.000000 -0.074670
vn -0.997208 0.000000 -0.074670
vn -0.999689 -0.000000 -0.024941
vn -0.999689 0.000000 -0.024941
vn -0.999689 0.000000 0.024941
vn -0.999689 0.000000 0.024941
vn -0.997208 0.000000 0.074670
vn -0.997208 0.000000 0.074670
vn -0.992232 0.000000 0.124398
vn -0.992232 0.000000 0.124398
vn -0.984804 0.000000 0.173669
vn -0.984804 0.000000 0.173669
vn -0.974937 0.000000 0.222481
vn -0.974937 0.000000 0.222481
vn -0.962627 0.000000 0.270832
vn -0.962627 0.000000 0.270832
vn -0.947902 0.000000 0.318564
vn -0.947902 0.000000 0.318564
vn -0.930909 0.000000 0.365252
vn -0.930909 0.000000 0.365252
vn -0.911502 0.000000 0.411296
vn -0.911502 0.000000 0.411296
vn -0.889844 0.000000 0.456266
vn -0.889844 0.000000 0.456266
vn -0.866073 0.000000 0.499918
vn -0.866073 0.000000 0.499918
vn -0.840010 0.000000 0.542570
vn -0.840010 0.000000 0.542570
vn -0.811938 0.000000 0.583744
vn -0.811938 0.000000 0.583744
vn -0.781816 0.000000 0.623509
vn -0.781816 0.000000 0.623509
vn -0.749811 0.000000 0.661653
vn -0.749811 0.000000 0.661653
vn -0.715812 0.000000 0.698293
vn -0.715812 0.000000 0.698293
vn -0.680158 0.000000 0.733066
vn -0.680158 0.000000 0.733066
vn -0.642821 0.000000 0.766016
vn -0.642821 0.000000 0.766016
vn -0.603776 0.000000 0.797154
vn -0.603776 0.000000 0.797154
vn -0.563378 0.000000 0.826199
vn -0.563378 0.000000 0.826199
vn -0.521411 0.000000 0.853306
vn -0.521411 0.000000 0.853306
vn -0.478225 0.000000 0.878237
vn -0.433898 0.000000 0.900962
vn -0.478225 0.000000 0.878237
vn -0.433898 0.000000 0.900962
vn -0.388445 0.000000 0.921472
vn -0.388445 0.000000 0.921472
vn -0.342035 0.000000 0.939687
vn -0.342035 0.000000 0.939687
vn -0.294762 0.000000 0.955571
vn -0.294762 0.000000 0.955571
vn -0.246732 0.000000 0.969084
vn -0.246732 0.000000 0.969084
vn -0.198141 0.000000 0.980173
vn -0.198141 0.000000 0.980173
vn -0.149053 0.000000 0.988829
vn -0.149053 0.000000 0.988829
vn -0.099567 0.000000 0.995031
vn -0.099567 0.000000 0.995031
vn -0.049846 0.000000 0.998757
vn -0.049846 0.000000 0.998757
vn 0.000000 0.000000 1.000000
vn 0.000000 0.000000 1.000000
vn 0.049846 0.000000 0.998757
vn 0.099567 -0.000000 0.995031
vn 0.049846 0.000000 0.998757
vn 0.099567 0.000000 0.995031
vn 0.149053 0.000000 0.988829
vn 0.149053 0.000000 0.988829
vn 0.198141 0.000000 0.980173
vn 0.198141 0.000000 0.980173
vn 0.246732 0.000000 0.969084
vn 0.246732 0.000000 0.969084
vn 0.294762 0.000000 0.955571
vn 0.294762 0.000000 0.955571
vn 0.342035 0.000000 0.939687
vn 0.342035 0.000000 0.939687
vn 0.388445 0.000000 0.921472
vn 0.388445 0.000000 0.921472
vn 0.433898 0.000000 0.900962
vn 0.433898 0.000000 0.900962
vn 0.478225 0.000000 0.878237
vn 0.478225 0.000000 0.878237
vn 0.521411 0.000000 0.853306
vn 0.521411 0.000000 0.853306
vn 0.563378 0.000000 0.826199
vn 0.563378 0.000000 0.826199
vn 0.603776 0.000000 0.797154
vn 0.603776 0.000000 0.797154
vn 0.642821 0.000000 0.766016
vn 0.642821 0.000000 0.766016
vn 0.680158 0.000000 0.733066
vn 0.680158 0.000000 0.733066
vn 0.715812 0.000000 0.698293
vn 0.715812 0.000000 0.698293
vn 0.749811 0.000000 0.661653
vn 0.749811 0.000000 0.661653
vn 0.781816 0.000000 0.623509
vn 0.781816 0.000000 0.623509
vn 0.811938 0.000000 0.583744
vn 0.811938 0.000000 0.583744
vn 0.840010 0.000000 0.542570
vn 0.840010 0.000000 0.542570
vn 0.866073 0.000000 0.499918
vn 0.866073 0.000000 0.499918
vn 0.889844 0.000000 0.456266
vn 0.889844 0.000000 0.456266
vn 0.911502 0.000000 0.411296
vn 0.911502 0.000000 0.411296
vn 0.930909 0.000000 0.365252
vn 0.930909 0.000000 0.365252
vn 0.947902 0.000000 0.318564
vn 0.947902 0.000000 0.318564
vn 0.962627 0.000000 0.270832
vn 0.962627 0.000000 0.270832
vn 0.974937 0.000000 0.222481
vn 0.974937 0.000000 0.222481
vn 0.984804 0.000000 0.173669
vn 0.984804 0.000000 0.173669
vn 0.992232 0.000000 0.124398
vn 0.992232 0.000000 0.124398
vn 0.997208 -0.000000 0.074670
vn 0.997208 0.000000 0.074670
vn 0.999689 0.000000 0.024941
vn 0.999689 0.000000 0.024941
vn 1.000000 0.000000 0.000000
vn 1.000000 0.000000 0.000000
vn 0.489396 0.872062 0.000000
vn 0.489396 0.872062 -0.000000
vn 0.918413 -0.395624 0.000000
vn 0.918413 -0.395624 0.000000
vn -0.552844 -0.833285 0.000000
vn -0.552844 -0.833285 0.000000
vn 0.999689 0.000000 -0.024941
vn 0.999689 0.000000 -0.024941
vn 0.997208 0.000000 -0.074670
vn 0.997208 0.000000 -0.074670
vn 0.992232 0.000000 -0.124398
vn 0.992232 0.000000 -0.124398
vn 0.984804 0.000000 -0.173669
vn 0.984804 0.000000 -0.173669
vn 0.974937 0.000000 -0.222481
vn 0.974937 0.000000 -0.222481
vn 0.962627 0.000000 -0.270832
vn 0.962627 0.000000 -0.270832
vn 0.947902 0.000000 -0.318564
vn 0.947902 0.000000 -0.318564
vn 0.930909 0.000000 -0.365252
vn 0.930909 0.000000 -0.365252
vn 0.911502 0.000000 -0.411296
vn 0.911502 0.000000 -0.411296
vn 0.889844 0.000000 -0.456266
vn 0.889844 0.000000 -0.456266
vn 0.866073 0.000000 -0.499918
vn 0.866073 0.000000 -0.499918
vn 0.840010 0.000000 -0.542570
vn 0.840010 0.000000 -0.542570
vn 0.811938 0.000000 -0.583744
vn 0.811938 0.000000 -0.583744
vn 0.781816 0.000000 -0.623509
vn 0.781816 0.000000 -0.623509
vn 0.749811 0.000000 -0.661653
vn 0.749811 0.000000 -0.661653
vn 0.715812 0.000000 -0.698293
vn 0.715812 0.000000 -0.698293
vn 0.680158 0.000000 -0.733066
vn 0.680158 0.000000 -0.733066
vn 0.642821 0.000000 -0.766016
vn 0.642821 0.000000 -0.766016
vn 0.603776 0.000000 -0.797154
vn 0.603776 0.000000 -0.797154
vn 0.563378 0.000000 -0.826199
vn 0.563378 0.000000 -0.826199
vn 0.521411 0.000000 -0.853306
vn 0.521411 0.000000 -0.853306
vn 0.478225 0.000000 -0.878237
vn 0.478225 0.000000 -0.878237
vn 0.433898 0.000000 -0.900962
vn 0.433898 0.000000 -0.900962
vn 0.388445 0.000000 -0.921472
vn 0.388445 0.000000 -0.921472
vn 0.342035 0.000000 -0.939687
vn 0.342035 0.000000 -0.939687
vn 0.294762 0.000000 -0.955571
vn 0.294762 0.000000 -0.955571
vn 0.246732 0.000000 -0.969084
vn 0.246732 0.000000 -0.969084
vn 0.198141 0.000000 -0.980173
vn 0.198141 0.000000 -0.980173
vn 0.149053 0.000000 -0.988829
vn 0.149053 0.000000 -0.988829
vn 0.099567 0.000000 -0.995031
vn 0.099567 0.000000 -0.995031
vn 0.049846 0.000000 -0.998757
vn 0.049846 0.000000 -0.998757
vn 0.000000 0.000000 -1.000000
vn 0.000000 0.000000 -1.000000
vn -0.049846 0.000000 -0.998757
vn -0.099567 0.000000 -0.995031
vn -0.049846 -0.000000 -0.998757
vn -0.099567 0.000000 -0.995031
vn -0.149053 0.000000 -0.988829
vn -0.149053 -0.000000 -0.988829
vn -0.198141 0.000000 -0.980173
vn -0.198141 -0.000000 -0.980173
vn -0.246732 -0.000000 -0.969084
vn -0.246732 0.000000 -0.969084
vn -0.294762 -0.000000 -0.955571
vn -0.294762 0.000000 -0.955571
vn -0.342035 0.000000 -0.939687
vn -0.342035 0.000000 -0.939687
vn -0.388445 -0.000000 -0.921472
vn -0.388445 0.000000 -0.921472
vn -0.433898 -0.000000 -0.900962
vn -0.433898 0.000000 -0.900962
vn -0.478225 -0.000000 -0.878237
vn -0.478225 0.000000 -0.878237
vn -0.521411 -0.000000 -0.853306
vn -0.521411 0.000000 -0.853306
vn -0.563378 -0.000000 -0.826199
vn -0.563378 0.000000 -0.826199
vn -0.603776 -0.000000 -0.797154
vn -0.603776 0.000000 -0.797154
vn -0.642821 -0.000000 -0.766016
vn -0.642821 0.000000 -0.766016
vn -0.680158 -0.000000 -0.733066
vn -0.680158 0.000000 -0.733066
vn -0.715812 -0.000000 -0.698293
vn -0.715812 0.000000 -0.698293
vn -0.749811 -0.000000 -0.661653
vn -0.749811 0.000000 -0.661653
vn -0.781816 -0.000000 -0.623509
vn -0.781816 0.000000 -0.623509
vn -0.811938 -0.000000 -0.583744
vn -0.811938 0.000000 -0.583744
vn -0.840010 -0.000000 -0.542570
vn -0.840010 0.000000 -0.542570
vn -0.866073 0.000000 -0.499918
vn -0.866073 0.000000 -0.499918
vn -0.889844 -0.000000 -0.456266
vn -0.889844 0.000000 -0.456266
vn -0.911502 -0.000000 -0.411296
vn -0.911502 0.000000 -0.411296
vn -0.930909 -0.000000 -0.365252
vn -0.930909 0.000000 -0.365252
vn -0.947902 -0.000000 -0.318564
vn -0.947902 0.000000 -0.318564
vn -0.962627 0.000000 -0.270832
vn -0.962627 -0.000000 -0.270832
vn -0.974937 0.000000 -0.222481
vn -0.974937 -0.000000 -0.222481
vn -0.984804 0.000000 -0.173669
vn -0.984804 -0.000000 -0.173669
vn -0.992232 0.000000 -0.124398
vn -0.997208 0.000000 -0.074670
vn -0.992232 -0.000000 -0.124398
vn -0.997208 0.000000 -0.074670
vn -0.999689 -0.000000 -0.024941
vn -0.999689 0.000000 -0.024941
vn -0.999689 0.000000 0.024941
vn -0.999689 0.000000 0.024941
vn -0.997208 0.000000 0.074670
vn -0.997208 0.000000 0.074670
vn -0.992232 0.000000 0.124398
vn -0.992232 0.000000 0.124398
vn -0.984804 0.000000 0.173669
vn -0.984804 0.000000 0.173669
vn -0.974937 0.000000 0.222481
vn -0.974937 0.000000 0.222481
vn -0.962627 0.000000 0.270832
vn -0.962627 0.000000 0.270832
vn -0.947902 0.000000 0.318564
vn -0.947902 0.000000 0.318564
vn -0.930909 0.000000 0.365252
vn -0.930909 0.000000 0.365252
vn -0.911502 0.000000 0.411296
vn -0.911502 0.000000 0.411296
vn -0.889844 0.000000 0.456266
vn -0.889844 0.000000 0.456266
vn -0.866073 0.000000 0.499918
vn -0.866073 0.000000 0.499918
vn -0.840010 0.000000 0.542570
vn -0.811938 0.000000 0.583744
vn -0.840010 0.000000 0.542570
vn -0.811938 0.000000 0.583744
vn -0.781816 0.000000 0.623509
vn -0.781816 0.000000 0.623509
vn -0.749811 0.000000 0.661653
vn -0.749811 0.000000 0.661653
vn -0.715812 0.000000 0.698293
vn -0.715812 0.000000 0.698293
vn -0.680158 0.000000 0.733066
vn -0.680158 0.000000 0.733066
vn -0.642821 0.000000 0.766016
vn -0.642821 0.000000 0.766016
vn -0.603776 0.000000 0.797154
vn -0.603776 0.000000 0.797154
vn -0.563378 0.000000 0.826199
vn -0.563378 0.000000 0.826199
vn -0.521411 0.000000 0.853306
vn -0.521411 0.000000 0.853306
vn -0.478225 0.000000 0.878237
vn -0.478225 0.000000 0.878237
vn -0.433898 0.000000 0.900962
vn -0.433898 0.000000 0.900962
vn -0.388445 0.000000 0.921472
vn -0.388445 0.000000 0.921472
vn -0.342035 0.000000 0.939687
vn -0.342035 0.000000 0.939687
vn -0.294762 0.000000 0.955571
vn -0.294762 0.000000 0.955571
vn -0.246732 0.000000 0.969084
vn -0.246732 0.000000 0.969084
vn -0.198141 0.000000 0.980173
vn -0.198141 0.000000 0.980173
vn -0.149053 0.000000 0.988829
vn -0.149053 0.000000 0.988829
vn -0.099567 0.000000 0.995031
vn -0.099567 0.000000 0.995031
vn -0.049846 0.000000 0.998757
vn -0.049846 0.000000 0.998757
vn 0.000000 0.000000 1.000000
vn 0.000000 0.000000 1.000000
vn 0.049846 0.000000 0.998757
vn 0.049846 0.000000 0.998757
vn 0.099567 0.000000 0.995031
vn 0.099567 0.000000 0.995031
vn 0.149053 0.000000 0.988829
vn 0.149053 0.000000 0.988829
vn 0.198141 0.000000 0.980173
vn 0.198141 0.000000 0.980173
vn 0.246732 0.000000 0.969084
vn 0.246732 0.000000 0.969084
vn 0.294762 0.000000 0.955571
vn 0.294762 0.000000 0.955571
vn 0.342035 0.000000 0.939687
vn 0.342035 0.000000 0.939687
vn 0.388445 0.000000 0.921472
vn 0.388445 0.000000 0.921472
vn 0.433898 0.000000 0.900962
vn 0.433898 0.000000 0.900962
vn 0.478225 0.000000 0.878237
vn 0.478225 0.000000 0.878237
vn 0.521411 0.000000 0.853306
vn 0.521411 0.000000 0.853306
vn 0.563378 0.000000 0.826199
vn 0.563378 0.000000 0.826199
vn 0.603776 0.000000 0.797154
vn 0.603776 0.000000 0.797154
vn 0.642821 0.000000 0.766016
vn 0.642821 0.000000 0.766016
vn 0.680158 0.000000 0.733066
vn 0.680158 0.000000 0.733066
vn 0.715812 0.000000 0.698293
vn 0.715812 0.000000 0.698293
vn 0.749811 0.000000 0.661653
vn 0.749811 0.000000 0.661653
vn 0.781816 0.000000 0.623509
vn 0.781816 0.000000 0.623509
vn 0.811938 0.000000 0.583744
vn 0.811938 0.000000 0.583744
vn 0.840010 0.000000 0.542570
vn 0.840010 0.000000 0.542570
vn 0.866073 0.000000 0.499918
vn 0.866073 0.000000 0.499918
vn 0.889844 0.000000 0.456266
vn 0.889844 0.000000 0.456266
vn 0.911502 0.000000 0.411296
vn 0.911502 0.000000 0.411296
vn 0.930909 0.000000 0.365252
vn 0.930909 0.000000 0.365252
vn 0.947902 0.000000 0.318564
vn 0.947902 0.000000 0.318564
vn 0.962627 0.000000 0.270832
vn 0.962627 0.000000 0.270832
vn 0.974937 0.000000 0.222481
vn 0.974937 0.000000 0.222481
vn 0.984804 0.000000 0.173669
vn 0.984804 0.000000 0.173669
vn 0.992232 0.000000 0.124398
vn 0.992232 0.000000 0.124398
vn 0.997208 0.000000 0.074670
vn 0.997208 0.000000 0.074670
vn 0.999689 0.000000 0.024941
vn 0.999689 0.000000 0.024941
f 1//1 2//1 3//1
f 4//2 2//2 5//2
f 4//3 3//3 2//3
f 6//4 1//4 3//4
f 7//5 8//5 4//5
f 7//6 4//6 5//6
f 1//7 9//7 10//7
f 6//8 9//8 1//8
f 11//9 12//9 13//9
f 13//10 14//10 11//10
f 11//11 15//11 12//11
f 14//12 16//12 11//12
f 11//13 17//13 15//13
f 16//14 18//14 11//14
f 11//15 19//15 17//15
f 18//16 20//16 11//16
f 11//17 21//17 19//17
f 20//18 22//18 11//18
f 11//19 23//19 21//19
f 22//20 24//20 11//20
f 11//21 25//21 23//21
f 24//22 26//22 11//22
f 11//23 27//23 25//23
f 26//24 28//24 11//24
f 11//25 29//25 27//25
f 28//26 30//26 11//26
f 11//27 31//27 29//27
f 30//28 32//28 11//28
f 11//29 33//29 31//29
f 32//30 34//30 11//30
f 11//31 35//31 33//31
f 34//32 36//32 11//32
f 11//33 37//33 35//33
f 36//34 38//34 11//34
f 11//35 39//35 37//35
f 38//36 40//36 11//36
f 11//37 41//37 39//37
f 40//38 42//38 11//38
f 9//39 43//39 11//39
f 11//40 43//40 41//40
f 42//41 44//41 11//41
f 9//42 45//42 43//42
f 9//43 46//43 45//43
f 9//44 47//44 46//44
f 9//45 48//45 47//45
f 9//46 49//46 48//46
f 9//47 50//47 49//47
f 9//48 51//48 50//48
f 9//49 52//49 51//49
f 9//50 53//50 52//50
f 9//51 54//51 53//51
f 9//52 55//52 54//52
f 9//53 56//53 55//53
f 9//54 57//54 56//54
f 9//55 58//55 57//55
f 9//56 59//56 58//56
f 9//57 60//57 59//57
f 9//58 61//58 60//58
f 9//59 62//59 61//59
f 9//60 63//60 62//60
f 9//61 64//61 63//61
f 9//62 65//62 64//62
f 9//63 66//63 65//63
f 9//64 67//64 66//64
f 9//65 68//65 67//65
f 9//66 69//66 68//66
f 9//67 70//67 69//67
f 9//68 71//68 70//68
f 9//69 72//69 71//69
f 9//70 73//70 72//70
f 9//71 74//71 73//71
f 75//72 3//72 76//72
f 76//73 3//73 77//73
f 77//74 3//74 78//74
f 78//75 3//75 79//75
f 79//76 3//76 80//76
f 80//77 3//77 81//77
f 81//78 3//78 82//78
f 82//79 3//79 83//79
f 83//80 3//80 84//80
f 84//81 3//81 85//81
f 85//82 3//82 86//82
f 86//83 3//83 87//83
f 87//84 3//84 88//84
f 88//85 3//85 89//85
f 89//86 3//86 90//86
f 90//87 3//87 91//87
f 91//88 3//88 92//88
f 92//89 3//89 93//89
f 93//90 3//90 94//90
f 94//91 3//91 95//91
f 95//92 3//92 96//92
f 96//93 3//93 97//93
f 97//94 3//94 98//94
f 98//95 3//95 99//95
f 99//96 3//96 100//96
f 100//97 3//97 101//97
f 101//98 3//98 102//98
f 102//99 3//99 103//99
f 103//100 3//100 104//100
f 104//101 3//101 105//101
f 105//102 3//102 44//102
f 44//103 3//103 11//103
f 106//104 6//104 107//104
f 107//105 6//105 108//105
f 108//106 6//106 109//106
f 109//107 6//107 110//107
f 110//108 6//108 111//108
f 111//109 6//109 112//109
f 112//110 6//110 113//110
f 113//111 6//111 114//111
f 114//112 6//112 115//112
f 115//113 6//113 116//113
f 116//114 6//114 117//114
f 117//115 6//115 118//115
f 118//116 6//116 119//116
f 119//117 6//117 120//117
f 120//118 6//118 121//118
f 121//119 6//119 122//119
f 122//120 6//120 123//120
f 123//121 6//121 124//121
f 124//122 6//122 125//122
f 75//123 6//123 3//123
f 125//124 6//124 126//124
f 126//125 6//125 127//125
f 127//126 6//126 128//126
f 128//127 6//127 129//127
f 129//128 6//128 130//128
f 130//129 6//129 131//129
f 131//130 6//130 132//130
f 132//131 6//131 133//131
f 133//132 6//132 134//132
f 134//133 6//133 135//133
f 135//134 6//134 75//134
f 9//135 6//135 136//135
f 9//136 136//136 74//136
f 136//137 6//137 137//137
f 137//138 6//138 106//138
f 138//139 139//139 140//139
f 141//140 139//140 138//140
f 11//141 138//141 142//141
f 11//142 141//142 138//142
f 143//143 141//143 11//143
f 144//144 141//144 143//144
f 4//145 11//145 3//145
f 4//146 143//146 11//146
f 4//147 145//147 146//147
f 146//148 147//148 4//148
f 4//149 148//149 145//149
f 147//150 149//150 4//150
f 4//151 150//151 148//151
f 149//152 151//152 4//152
f 4//153 152//153 150//153
f 151//154 153//154 4//154
f 4//155 154//155 152//155
f 153//156 155//156 4//156
f 4//157 156//157 154//157
f 155//158 157//158 4//158
f 4//159 158//159 156//159
f 157//160 159//160 4//160
f 4//161 160//161 158//161
f 159//162 161//162 4//162
f 4//163 162//163 160//163
f 161//164 163//164 4//164
f 4//165 164//165 162//165
f 163//166 165//166 4//166
f 4//167 166//167 164//167
f 165//168 167//168 4//168
f 4//169 168//169 166//169
f 167//170 169//170 4//170
f 4//171 170//171 168//171
f 169//172 171//172 4//172
f 4//173 172//173 170//173
f 171//174 173//174 4//174
f 4//175 174//175 172//175
f 173//176 175//176 4//176
f 8//177 176//177 4//177
f 4//178 176//178 174//178
f 8//179 177//179 176//179
f 8//180 178//180 177//180
f 8//181 179//181 178//181
f 8//182 180//182 179//182
f 8//183 181//183 180//183
f 8//184 182//184 181//184
f 8//185 183//185 182//185
f 8//186 184//186 183//186
f 8//187 185//187 184//187
f 8//188 186//188 185//188
f 8//189 187//189 186//189
f 8//190 188//190 187//190
f 8//191 189//191 188//191
f 8//192 190//192 189//192
f 8//193 191//193 190//193
f 8//194 192//194 191//194
f 8//195 193//195 192//195
f 8//196 194//196 193//196
f 8//197 195//197 194//197
f 8//198 196//198 195//198
f 8//199 197//199 196//199
f 8//200 198//200 197//200
f 8//201 199//201 198//201
f 8//202 200//202 199//202
f 8//203 201//203 200//203
f 8//204 202//204 201//204
f 8//205 203//205 202//205
f 8//206 204//206 203//206
f 8//207 205//207 204//207
f 8//208 206//208 205//208
f 207//209 143//209 175//209
f 208//210 143//210 207//210
f 209//211 143//211 208//211
f 210//212 143//212 209//212
f 211//213 143//213 210//213
f 212//214 143//214 211//214
f 213//215 143//215 212//215
f 214//216 143//216 213//216
f 215//217 143//217 214//217
f 216//218 143//218 215//218
f 217//219 143//219 216//219
f 218//220 143//220 217//220
f 219//221 143//221 218//221
f 220//222 143//222 219//222
f 221//223 143//223 220//223
f 222//224 143//224 221//224
f 223//225 143//225 222//225
f 224//226 143//226 223//226
f 225//227 143//227 224//227
f 226//228 143//228 225//228
f 227//229 143//229 226//229
f 228//230 143//230 227//230
f 229//231 143//231 228//231
f 230//232 143//232 229//232
f 231//233 143//233 230//233
f 232//234 143//234 231//234
f 233//235 143//235 232//235
f 234//236 143//236 233//236
f 235//237 143//237 234//237
f 236//238 143//238 235//238
f 237//239 143//239 236//239
f 238//240 143//240 237//240
f 175//241 143//241 4//241
f 238//242 239//242 143//242
f 240//243 239//243 238//243
f 241//244 239//244 240//244
f 242//245 239//245 241//245
f 243//246 239//246 242//246
f 244//247 239//247 243//247
f 245//248 239//248 244//248
f 246//249 239//249 245//249
f 247//250 239//250 246//250
f 248//251 239//251 247//251
f 249//252 239//252 248//252
f 250//253 239//253 249//253
f 251//254 239//254 250//254
f 252//255 239//255 251//255
f 253//256 239//256 252//256
f 254//257 239//257 253//257
f 255//258 239//258 254//258
f 256//259 239//259 255//259
f 257//260 239//260 256//260
f 258//261 239//261 257//261
f 259//262 239//262 258//262
f 260//263 239//263 259//263
f 261//264 239//264 260//264
f 262//265 239//265 261//265
f 263//266 239//266 262//266
f 264//267 239//267 263//267
f 265//268 239//268 264//268
f 266//269 239//269 265//269
f 267//270 239//270 266//270
f 268//271 239//271 267//271
f 269//272 239//272 268//272
f 8//273 239//273 270//273
f 8//274 270//274 206//274
f 270//275 239//275 271//275
f 271//276 239//276 269//276
f 8//277 272//277 239//277
f 7//278 272//278 8//278
f 273//279 274//279 7//279
f 275//280 7//280 274//280
f 276//281 273//281 7//281
f 277//282 7//282 275//282
f 278//283 276//283 7//283
f 279//284 7//284 277//284
f 280//285 278//285 7//285
f 281//286 7//286 279//286
f 282//287 280//287 7//287
f 283//288 7//288 281//288
f 284//289 282//289 7//289
f 285//290 7//290 283//290
f 286//291 284//291 7//291
f 287//292 7//292 285//292
f 288//293 286//293 7//293
f 289//294 7//294 287//294
f 290//295 288//295 7//295
f 291//296 7//296 289//296
f 292//297 290//297 7//297
f 293//298 7//298 291//298
f 294//299 292//299 7//299
f 295//300 7//300 293//300
f 296//301 294//301 7//301
f 297//302 7//302 295//302
f 298//303 296//303 7//303
f 299//304 7//304 297//304
f 300//305 298//305 7//305
f 301//306 7//306 299//306
f 302//307 300//307 7//307
f 303//308 7//308 301//308
f 304//309 302//309 7//309
f 305//310 304//310 7//310
f 306//311 305//311 7//311
f 307//312 306//312 7//312
f 308//313 307//313 7//313
f 309//314 308//314 7//314
f 310//315 309//315 7//315
f 311//316 310//316 7//316
f 312//317 311//317 7//317
f 313//318 312//318 7//318
f 272//319 303//319 314//319
f 272//320 315//320 316//320
f 272//321 317//321 315//321
f 272//322 318//322 317//322
f 272//323 319//323 318//323
f 272//324 320//324 319//324
f 272//325 321//325 320//325
f 272//326 322//326 321//326
f 272//327 323//327 322//327
f 272//328 324//328 323//328
f 272//329 325//329 324//329
f 272//330 326//330 325//330
f 272//331 327//331 326//331
f 272//332 328//332 327//332
f 272//333 329//333 328//333
f 272//334 330//334 329//334
f 272//335 331//335 330//335
f 272//336 332//336 331//336
f 272//337 333//337 332//337
f 272//338 334//338 333//338
f 272//339 335//339 334//339
f 272//340 336//340 335//340
f 272//341 337//341 336//341
f 272//342 338//342 337//342
f 272//343 339//343 338//343
f 272//344 340//344 339//344
f 272//345 341//345 340//345
f 272//346 342//346 341//346
f 272//347 343//347 342//347
f 272//348 7//348 303//348
f 272//349 344//349 343//349
f 272//350 345//350 344//350
f 272//351 314//351 345//351
f 5//352 346//352 313//352
f 5//353 347//353 346//353
f 5//354 348//354 347//354
f 5//355 349//355 348//355
f 5//356 350//356 349//356
f 5//357 351//357 350//357
f 5//358 352//358 351//358
f 5//359 353//359 352//359
f 5//360 354//360 353//360
f 5//361 355//361 354//361
f 5//362 356//362 355//362
f 5//363 357//363 356//363
f 5//364 358//364 357//364
f 5//365 359//365 358//365
f 5//366 360//366 359//366
f 5//367 361//367 360//367
f 5//368 362//368 361//368
f 5//369 363//369 362//369
f 5//370 364//370 363//370
f 5//371 365//371 364//371
f 5//372 313//372 7//372
f 5//373 366//373 365//373
f 5//374 367//374 366//374
f 5//375 368//375 367//375
f 5//376 369//376 368//376
f 144//377 370//377 369//377
f 144//378 371//378 370//378
f 144//379 372//379 371//379
f 144//380 373//380 372//380
f 144//381 374//381 373//381
f 144//382 375//382 374//382
f 144//383 376//383 375//383
f 144//384 377//384 376//384
f 144//385 378//385 377//385
f 144//386 379//386 378//386
f 144//387 380//387 379//387
f 144//388 381//388 380//388
f 144//389 382//389 381//389
f 144//390 383//390 382//390
f 144//391 384//391 383//391
f 144//392 272//392 316//392
f 144//393 385//393 384//393
f 144//394 386//394 385//394
f 144//395 387//395 386//395
f 144//396 388//396 387//396
f 144//397 389//397 388//397
f 144//398 390//398 389//398
f 144//399 391//399 390//399
f 144//400 392//400 391//400
f 144//401 393//401 392//401
f 144//402 394//402 393//402
f 144//403 395//403 394//403
f 144//404 396//404 395//404
f 144//405 397//405 396//405
f 144//406 398//406 397//406
f 144//407 316//407 398//407
f 144//408 369//408 5//408
f 399//409 141//409 144//409
f 5//410 399//410 144//410
f 399//411 5//411 2//411
f 399//412 2//412 400//412
f 401//413 400//413 402//413
f 401//414 399//414 400//414
f 403//415 404//415 2//415
f 405//416 2//416 404//416
f 406//417 403//417 2//417
f 407//418 2//418 405//418
f 408//419 406//419 2//419
f 409//420 2//420 407//420
f 410//421 408//421 2//421
f 411//422 2//422 409//422
f 412//423 410//423 2//423
f 413//424 2//424 411//424
f 414//425 412//425 2//425
f 415//426 2//426 413//426
f 416//427 2//427 1//427
f 416//428 414//428 2//428
f 417//429 2//429 415//429
f 418//430 416//430 1//430
f 419//431 2//431 417//431
f 420//432 418//432 1//432
f 421//433 2//433 419//433
f 422//434 420//434 1//434
f 423//435 2//435 421//435
f 424//436 422//436 1//436
f 425//437 2//437 423//437
f 426//438 424//438 1//438
f 427//439 2//439 425//439
f 428//440 426//440 1//440
f 429//441 2//441 427//441
f 430//442 428//442 1//442
f 431//443 2//443 429//443
f 432//444 430//444 1//444
f 433//445 2//445 431//445
f 434//446 432//446 1//446
f 435//447 2//447 433//447
f 436//448 434//448 1//448
f 437//449 2//449 435//449
f 438//450 436//450 1//450
f 439//451 438//451 1//451
f 440//452 439//452 1//452
f 441//453 440//453 1//453
f 442//454 441//454 1//454
f 443//455 442//455 1//455
f 444//456 443//456 1//456
f 445//457 444//457 1//457
f 446//458 445//458 1//458
f 447//459 446//459 1//459
f 448//460 447//460 1//460
f 449//461 448//461 1//461
f 450//462 449//462 1//462
f 451//463 450//463 1//463
f 452//464 451//464 1//464
f 453//465 452//465 1//465
f 454//466 453//466 1//466
f 455//467 454//467 1//467
f 456//468 455//468 1//468
f 457//469 456//469 1//469
f 458//470 457//470 1//470
f 459//471 458//471 1//471
f 460//472 459//472 1//472
f 461//473 460//473 1//473
f 462//474 461//474 1//474
f 463//475 462//475 1//475
f 464//476 463//476 1//476
f 465//477 464//477 1//477
f 466//478 465//478 1//478
f 467//479 466//479 1//479
f 142//480 2//480 437//480
f 142//481 437//481 468//481
f 142//482 468//482 469//482
f 142//483 469//483 470//483
f 142//484 470//484 471//484
f 142//485 471//485 472//485
f 142//486 472//486 473//486
f 142//487 473//487 474//487
f 142//488 474//488 475//488
f 142//489 475//489 476//489
f 142//490 476//490 477//490
f 142//491 477//491 478//491
f 142//492 478//492 479//492
f 142//493 479//493 480//493
f 142//494 480//494 481//494
f 142//495 481//495 482//495
f 142//496 482//496 483//496
f 142//497 483//497 484//497
f 142//498 484//498 485//498
f 142//499 485//499 486//499
f 142//500 486//500 487//500
f 142//501 487//501 488//501
f 142//502 488//502 489//502
f 142//503 489//503 490//503
f 142//504 490//504 491//504
f 142//505 491//505 492//505
f 142//506 492//506 493//506
f 142//507 493//507 494//507
f 142//508 494//508 495//508
f 142//509 495//509 496//509
f 142//510 496//510 497//510
f 10//511 498//511 467//511
f 10//512 467//512 1//512
f 10//513 142//513 497//513
f 10//514 497//514 499//514
f 10//515 499//515 500//515
f 10//516 500//516 501//516
f 10//517 501//517 502//517
f 10//518 502//518 503//518
f 10//519 503//519 504//519
f 10//520 504//520 505//520
f 10//521 505//521 506//521
f 10//522 506//522 507//522
f 10//523 507//523 508//523
f 10//524 508//524 509//524
f 10//525 509//525 510//525
f 10//526 510//526 511//526
f 10//527 511//527 512//527
f 10//528 512//528 513//528
f 10//529 513//529 514//529
f 10//530 514//530 515//530
f 10//531 515//531 516//531
f 10//532 516//532 517//532
f 10//533 517//533 518//533
f 10//534 518//534 519//534
f 10//535 519//535 520//535
f 10//536 520//536 521//536
f 10//537 521//537 522//537
f 10//538 522//538 523//538
f 10//539 523//539 524//539
f 10//540 524//540 525//540
f 10//541 525//541 526//541
f 10//542 526//542 527//542
f 10//543 527//543 528//543
f 10//544 528//544 498//544
f 138//545 400//545 142//545
f 400//546 2//546 142//546
f 10//547 9//547 11//547
f 10//548 11//548 142//548
f 75//549 76//549 434//549
f 434//550 76//550 432//550
f 432//551 77//551 430//551
f 76//552 77//552 432//552
f 430//553 78//553 428//553
f 77//554 78//554 430//554
f 428//555 79//555 426//555
f 78//556 79//556 428//556
f 426//557 80//557 424//557
f 79//558 80//558 426//558
f 424//559 81//559 422//559
f 422//560 81//560 420//560
f 80//561 81//561 424//561
f 81//562 82//562 420//562
f 420//563 83//563 418//563
f 82//564 83//564 420//564
f 418//565 84//565 416//565
f 83//566 84//566 418//566
f 416//567 85//567 414//567
f 414//568 85//568 412//568
f 84//569 85//569 416//569
f 85//570 86//570 412//570
f 86//571 87//571 412//571
f 412//572 87//572 410//572
f 87//573 88//573 410//573
f 410//574 88//574 408//574
f 88//575 89//575 408//575
f 408//576 89//576 406//576
f 89//577 90//577 406//577
f 406//578 90//578 403//578
f 90//579 91//579 403//579
f 403//580 91//580 404//580
f 91//581 92//581 404//581
f 404//582 92//582 405//582
f 405//583 92//583 407//583
f 92//584 93//584 407//584
f 93//585 94//585 407//585
f 407//586 94//586 409//586
f 94//587 95//587 409//587
f 409//588 95//588 411//588
f 411//589 95//589 413//589
f 95//590 96//590 413//590
f 413//591 96//591 415//591
f 96//592 97//592 415//592
f 415//593 98//593 417//593
f 97//594 98//594 415//594
f 417//595 99//595 419//595
f 98//596 99//596 417//596
f 419//597 100//597 421//597
f 99//598 100//598 419//598
f 421//599 101//599 423//599
f 100//600 101//600 421//600
f 423//601 102//601 425//601
f 101//602 102//602 423//602
f 425//603 103//603 427//603
f 102//604 103//604 425//604
f 427//605 104//605 429//605
f 103//606 104//606 427//606
f 429//607 105//607 431//607
f 104//608 105//608 429//608
f 431//609 44//609 433//609
f 105//610 44//610 431//610
f 433//611 42//611 435//611
f 435//612 42//612 437//612
f 44//613 42//613 433//613
f 42//614 40//614 437//614
f 437//615 38//615 468//615
f 40//616 38//616 437//616
f 468//617 36//617 469//617
f 38//618 36//618 468//618
f 469//619 34//619 470//619
f 36//620 34//620 469//620
f 34//621 32//621 470//621
f 470//622 32//622 471//622
f 32//623 30//623 471//623
f 471//624 30//624 472//624
f 30//625 28//625 472//625
f 472//626 28//626 473//626
f 28//627 26//627 473//627
f 473//628 26//628 474//628
f 26//629 24//629 474//629
f 474//630 24//630 475//630
f 24//631 22//631 475//631
f 475//632 22//632 476//632
f 22//633 20//633 476//633
f 476//634 20//634 477//634
f 20//635 18//635 477//635
f 477//636 18//636 478//636
f 18//637 16//637 478//637
f 478//638 16//638 479//638
f 16//639 14//639 479//639
f 479//640 14//640 480//640
f 14//641 13//641 480//641
f 480//642 13//642 481//642
f 13//643 12//643 481//643
f 481//644 12//644 482//644
f 482//645 12//645 483//645
f 12//646 15//646 483//646
f 15//647 17//647 483//647
f 483//648 17//648 484//648
f 17//649 19//649 484//649
f 484//650 19//650 485//650
f 19//651 21//651 485//651
f 485//652 21//652 486//652
f 486//653 21//653 487//653
f 21//654 23//654 487//654
f 23//655 25//655 487//655
f 487//656 25//656 488//656
f 25//657 27//657 488//657
f 488//658 27//658 489//658
f 27//659 29//659 489//659
f 489//660 29//660 490//660
f 29//661 31//661 490//661
f 490//662 31//662 491//662
f 491//663 33//663 492//663
f 31//664 33//664 491//664
f 492//665 35//665 493//665
f 33//666 35//666 492//666
f 493//667 37//667 494//667
f 35//668 37//668 493//668
f 494//669 39//669 495//669
f 37//670 39//670 494//670
f 39//671 41//671 495//671
f 495//672 41//672 496//672
f 41//673 43//673 496//673
f 496//674 43//674 497//674
f 43//675 45//675 497//675
f 497//676 45//676 499//676
f 45//677 46//677 499//677
f 499//678 46//678 500//678
f 46//679 47//679 500//679
f 500//680 47//680 501//680
f 47//681 48//681 501//681
f 501//682 48//682 502//682
f 48//683 49//683 502//683
f 502//684 49//684 503//684
f 49//685 50//685 503//685
f 503//686 50//686 504//686
f 50//687 51//687 504//687
f 504//688 51//688 505//688
f 51//689 52//689 505//689
f 505//690 52//690 506//690
f 52//691 53//691 506//691
f 506//692 53//692 507//692
f 53//693 54//693 507//693
f 507//694 54//694 508//694
f 54//695 55//695 508//695
f 508//696 55//696 509//696
f 509//697 56//697 510//697
f 55//698 56//698 509//698
f 510//699 57//699 511//699
f 56//700 57//700 510//700
f 511//701 58//701 512//701
f 57//702 58//702 511//702
f 512//703 59//703 513//703
f 58//704 59//704 512//704
f 513//705 60//705 514//705
f 59//706 60//706 513//706
f 514//707 61//707 515//707
f 60//708 61//708 514//708
f 515//709 62//709 516//709
f 61//710 62//710 515//710
f 516//711 63//711 517//711
f 62//712 63//712 516//712
f 517//713 64//713 518//713
f 63//714 64//714 517//714
f 518//715 65//715 519//715
f 64//716 65//716 518//716
f 519//717 66//717 520//717
f 520//718 66//718 521//718
f 65//719 66//719 519//719
f 66//720 67//720 521//720
f 521//721 68//721 522//721
f 67//722 68//722 521//722
f 68//723 69//723 522//723
f 522//724 69//724 523//724
f 69//725 70//725 523//725
f 523//726 70//726 524//726
f 70//727 71//727 524//727
f 524//728 71//728 525//728
f 71//729 72//729 525//729
f 525//730 72//730 526//730
f 526//731 72//731 527//731
f 72//732 73//732 527//732
f 527//733 74//733 528//733
f 73//734 74//734 527//734
f 528//735 136//735 498//735
f 74//736 136//736 528//736
f 498//737 137//737 467//737
f 136//738 137//738 498//738
f 467//739 106//739 466//739
f 466//740 106//740 465//740
f 137//741 106//741 467//741
f 106//742 107//742 465//742
f 465//743 108//743 464//743
f 107//744 108//744 465//744
f 464//745 109//745 463//745
f 108//746 109//746 464//746
f 463//747 110//747 462//747
f 109//748 110//748 463//748
f 462//749 111//749 461//749
f 110//750 111//750 462//750
f 461//751 112//751 460//751
f 111//752 112//752 461//752
f 460//753 113//753 459//753
f 112//754 113//754 460//754
f 459//755 114//755 458//755
f 113//756 114//756 459//756
f 458//757 115//757 457//757
f 114//758 115//758 458//758
f 457//759 116//759 456//759
f 115//760 116//760 457//760
f 456//761 117//761 455//761
f 116//762 117//762 456//762
f 455//763 118//763 454//763
f 117//764 118//764 455//764
f 454//765 119//765 453//765
f 118//766 119//766 454//766
f 453//767 120//767 452//767
f 119//768 120//768 453//768
f 452//769 121//769 451//769
f 120//770 121//770 452//770
f 121//771 122//771 451//771
f 451//772 122//772 450//772
f 122//773 123//773 450//773
f 450//774 123//774 449//774
f 123//775 124//775 449//775
f 449//776 124//776 448//776
f 124//777 125//777 448//777
f 448//778 125//778 447//778
f 125//779 126//779 447//779
f 447//780 126//780 446//780
f 126//781 127//781 446//781
f 446//782 127//782 445//782
f 127//783 128//783 445//783
f 445//784 128//784 444//784
f 128//785 129//785 444//785
f 444//786 129//786 443//786
f 129//787 130//787 443//787
f 443//788 130//788 442//788
f 130//789 131//789 442//789
f 442//790 131//790 441//790
f 131//791 132//791 441//791
f 441//792 132//792 440//792
f 132//793 133//793 440//793
f 440//794 133//794 439//794
f 133//795 134//795 439//795
f 439//796 134//796 438//796
f 438//797 134//797 436//797
f 134//798 135//798 436//798
f 436//799 75//799 434//799
f 135//800 75//800 436//800
f 239//801 272//801 144//801
f 239//802 144//802 143//802
f 139//803 141//803 399//803
f 139//804 399//804 401//804
f 140//805 139//805 401//805
f 140//806 401//806 402//806
f 400//807 140//807 402//807
f 138//808 140//808 400//808
f 304//809 305//809 176//809
f 176//810 305//810 174//810
f 174//811 306//811 172//811
f 305//812 306//812 174//812
f 172//813 307//813 170//813
f 306//814 307//814 172//814
f 170//815 308//815 168//815
f 307//816 308//816 170//816
f 168//817 309//817 166//817
f 308//818 309//818 168//818
f 166//819 310//819 164//819
f 309//820 310//820 166//820
f 164//821 311//821 162//821
f 310//822 311//822 164//822
f 162//823 312//823 160//823
f 311//824 312//824 162//824
f 160//825 313//825 158//825
f 312//826 313//826 160//826
f 158//827 346//827 156//827
f 313//828 346//828 158//828
f 346//829 347//829 156//829
f 156//830 347//830 154//830
f 347//831 348//831 154//831
f 154//832 348//832 152//832
f 348//833 349//833 152//833
f 152//834 349//834 150//834
f 150//835 349//835 148//835
f 349//836 350//836 148//836
f 148//837 350//837 145//837
f 350//838 351//838 145//838
f 351//839 352//839 145//839
f 145//840 352//840 146//840
f 146//841 352//841 147//841
f 352//842 353//842 147//842
f 353//843 354//843 147//843
f 147//844 354//844 149//844
f 354//845 355//845 149//845
f 149//846 355//846 151//846
f 151//847 355//847 153//847
f 355//848 356//848 153//848
f 356//849 357//849 153//849
f 153//850 357//850 155//850
f 357//851 358//851 155//851
f 155//852 358//852 157//852
f 157//853 359//853 159//853
f 358//854 359//854 157//854
f 159//855 360//855 161//855
f 359//856 360//856 159//856
f 161//857 361//857 163//857
f 360//858 361//858 161//858
f 163//859 362//859 165//859
f 361//860 362//860 163//860
f 165//861 363//861 167//861
f 362//862 363//862 165//862
f 167//863 364//863 169//863
f 363//864 364//864 167//864
f 169//865 365//865 171//865
f 364//866 365//866 169//866
f 171//867 366//867 173//867
f 365//868 366//868 171//868
f 173//869 367//869 175//869
f 366//870 367//870 173//870
f 175//871 368//871 207//871
f 367//872 368//872 175//872
f 207//873 369//873 208//873
f 208//874 369//874 209//874
f 368//875 369//875 207//875
f 369//876 370//876 209//876
f 209//877 371//877 210//877
f 370//878 371//878 209//878
f 210//879 372//879 211//879
f 371//880 372//880 210//880
f 372//881 373//881 211//881
f 211//882 373//882 212//882
f 373//883 374//883 212//883
f 212//884 374//884 213//884
f 213//885 374//885 214//885
f 374//886 375//886 214//886
f 375//887 376//887 214//887
f 214//888 376//888 215//888
f 376//889 377//889 215//889
f 215//890 377//890 216//890
f 377//891 378//891 216//891
f 216//892 378//892 217//892
f 378//893 379//893 217//893
f 217//894 379//894 218//894
f 379//895 380//895 218//895
f 218//896 380//896 219//896
f 380//897 381//897 219//897
f 219//898 381//898 220//898
f 381//899 382//899 220//899
f 220//900 382//900 221//900
f 382//901 383//901 221//901
f 221//902 383//902 222//902
f 383//903 384//903 222//903
f 222//904 384//904 223//904
f 384//905 385//905 223//905
f 223//906 385//906 224//906
f 385//907 386//907 224//907
f 224//908 386//908 225//908
f 386//909 387//909 225//909
f 225//910 387//910 226//910
f 387//911 388//911 226//911
f 226//912 388//912 227//912
f 227//913 388//913 228//913
f 388//914 389//914 228//914
f 389//915 390//915 228//915
f 228//916 390//916 229//916
f 390//917 391//917 229//917
f 229//918 391//918 230//918
f 391//919 392//919 230//919
f 230//920 392//920 231//920
f 392//921 393//921 231//921
f 231//922 393//922 232//922
f 232//923 394//923 233//923
f 393//924 394//924 232//924
f 233//925 395//925 234//925
f 394//926 395//926 233//926
f 234//927 396//927 235//927
f 395//928 396//928 234//928
f 235//929 397//929 236//929
f 236//930 397//930 237//930
f 396//931 397//931 235//931
f 397//932 398//932 237//932
f 398//933 316//933 237//933
f 237//934 316//934 238//934
f 316//935 315//935 238//935
f 238//936 315//936 240//936
f 315//937 317//937 240//937
f 240//938 317//938 241//938
f 317//939 318//939 241//939
f 241//940 318//940 242//940
f 318//941 319//941 242//941
f 242//942 319//942 243//942
f 319//943 320//943 243//943
f 243//944 320//944 244//944
f 320//945 321//945 244//945
f 244//946 321//946 245//946
f 321//947 322//947 245//947
f 245//948 322//948 246//948
f 322//949 323//949 246//949
f 246//950 323//950 247//950
f 323//951 324//951 247//951
f 247//952 324//952 248//952
f 324//953 325//953 248//953
f 248//954 325//954 249//954
f 325//955 326//955 249//955
f 249//956 326//956 250//956
f 250//957 327//957 251//957
f 251//958 327//958 252//958
f 326//959 327//959 250//959
f 327//960 328//960 252//960
f 252//961 329//961 253//961
f 328//962 329//962 252//962
f 253//963 330//963 254//963
f 329//964 330//964 253//964
f 254//965 331//965 255//965
f 330//966 331//966 254//966
f 255//967 332//967 256//967
f 331//968 332//968 255//968
f 256//969 333//969 257//969
f 332//970 333//970 256//970
f 257//971 334//971 258//971
f 333//972 334//972 257//972
f 258//973 335//973 259//973
f 334//974 335//974 258//974
f 259//975 336//975 260//975
f 335//976 336//976 259//976
f 260//977 337//977 261//977
f 336//978 337//978 260//978
f 261//979 338//979 262//979
f 337//980 338//980 261//980
f 262//981 339//981 263//981
f 338//982 339//982 262//982
f 339//983 340//983 263//983
f 263//984 340//984 264//984
f 340//985 341//985 264//985
f 264//986 341//986 265//986
f 341//987 342//987 265//987
f 265//988 342//988 266//988
f 342//989 343//989 266//989
f 266//990 343//990 267//990
f 267//991 344//991 268//991
f 343//992 344//992 267//992
f 268//993 345//993 269//993
f 344//994 345//994 268//994
f 269//995 314//995 271//995
f 345//996 314//996 269//996
f 271//997 303//997 270//997
f 314//998 303//998 271//998
f 270//999 301//999 206//999
f 303//1000 301//1000 270//1000
f 206//1001 299//1001 205//1001
f 301//1002 299//1002 206//1002
f 205//1003 297//1003 204//1003
f 299//1004 297//1004 205//1004
f 204//1005 295//1005 203//1005
f 297//1006 295//1006 204//1006
f 203//1007 293//1007 202//1007
f 295//1008 293//1008 203//1008
f 202//1009 291//1009 201//1009
f 293//1010 291//1010 202//1010
f 201//1011 289//1011 200//1011
f 291//1012 289//1012 201//1012
f 200//1013 287//1013 199//1013
f 289//1014 287//1014 200//1014
f 199//1015 285//1015 198//1015
f 287//1016 285//1016 199//1016
f 198//1017 283//1017 197//1017
f 285//1018 283//1018 198//1018
f 197//1019 281//1019 196//1019
f 283//1020 281//1020 197//1020
f 196//1021 279//1021 195//1021
f 281//1022 279//1022 196//1022
f 195//1023 277//1023 194//1023
f 279//1024 277//1024 195//1024
f 194//1025 275//1025 193//1025
f 277//1026 275//1026 194//1026
f 193//1027 274//1027 192//1027
f 275//1028 274//1028 193//1028
f 192//1029 273//1029 191//1029
f 274//1030 273//1030 192//1030
f 273//1031 276//1031 191//1031
f 191//1032 276//1032 190//1032
f 276//1033 278//1033 190//1033
f 190//1034 278//1034 189//1034
f 278//1035 280//1035 189//1035
f 189//1036 280//1036 188//1036
f 280//1037 282//1037 188//1037
f 188//1038 282//1038 187//1038
f 282//1039 284//1039 187//1039
f 187//1040 284//1040 186//1040
f 284//1041 286//1041 186//1041
f 186//1042 286//1042 185//1042
f 286//1043 288//1043 185//1043
f 185//1044 288//1044 184//1044
f 288//1045 290//1045 184//1045
f 184//1046 290//1046 183//1046
f 290//1047 292//1047 183//1047
f 183//1048 292//1048 182//1048
f 292//1049 294//1049 182//1049
f 182//1050 294//1050 181//1050
f 294//1051 296//1051 181//1051
f 181//1052 296//1052 180//1052
f 296//1053 298//1053 180//1053
f 180//1054 298//1054 179//1054
f 298//1055 300//1055 179//1055
f 179//1056 300//1056 178//1056
f 178//1057 302//1057 177//1057
f 300//1058 302//1058 178//1058
f 177//1059 304//1059 176//1059
f 302//1060 304//1060 177//1060
